<?xml version="1.0" encoding="UTF-8" standalone="no"?>
<svg
   xmlns:dc="http://purl.org/dc/elements/1.1/"
   xmlns:cc="http://creativecommons.org/ns#"
   xmlns:rdf="http://www.w3.org/1999/02/22-rdf-syntax-ns#"
   xmlns:svg="http://www.w3.org/2000/svg"
   xmlns="http://www.w3.org/2000/svg"
   xmlns:sodipodi="http://sodipodi.sourceforge.net/DTD/sodipodi-0.dtd"
   xmlns:inkscape="http://www.inkscape.org/namespaces/inkscape"
   width="92mm"
   height="62mm"
   viewBox="0 0 92 62"
   version="1.1"
   id="svg407"
   inkscape:version="1.0 (4035a4f, 2020-05-01)"
   sodipodi:docname="sitedobem.svg">
  <defs
     id="defs401">
    <clipPath
       id="clipPath88"
       clipPathUnits="userSpaceOnUse">
      <path
         id="path86"
         d="M 0,500 H 500 V 0 H 0 Z" />
    </clipPath>
  </defs>
  <sodipodi:namedview
     id="base"
     pagecolor="#ffffff"
     bordercolor="#666666"
     borderopacity="1.0"
     inkscape:pageopacity="0"
     inkscape:pageshadow="2"
     inkscape:zoom="0.98994949"
     inkscape:cx="260.38034"
     inkscape:cy="275.61497"
     inkscape:document-units="mm"
     inkscape:current-layer="layer1"
     inkscape:document-rotation="0"
     showgrid="false"
     inkscape:pagecheckerboard="true"
     inkscape:window-width="1440"
     inkscape:window-height="797"
     inkscape:window-x="0"
     inkscape:window-y="23"
     inkscape:window-maximized="0" />
  <metadata
     id="metadata404">
    <rdf:RDF>
      <cc:Work
         rdf:about="">
        <dc:format>image/svg+xml</dc:format>
        <dc:type
           rdf:resource="http://purl.org/dc/dcmitype/StillImage" />
        <dc:title />
      </cc:Work>
    </rdf:RDF>
  </metadata>
  <g
     inkscape:label="Layer 1"
     inkscape:groupmode="layer"
     id="layer1">
    <g
       transform="matrix(0.35277777,0,0,-0.35277777,-52.0653,149.06933)"
       clip-path="url(#clipPath88)"
       id="g84"
       style="fill:#f9f9f9">
      <g
         transform="matrix(1.2873581,0,0,1.4421,308.05884,304.07388)"
         id="g114"
         style="fill:#f9f9f9">
        <path
           id="path116"
           style="fill:#f9f9f9;fill-opacity:1;fill-rule:nonzero;stroke:none"
           d="M 0,0 C -0.001,0 -0.001,0 -0.002,-0.001 -0.001,0 -0.001,0 0,0 m -0.003,-0.001 h -0.001 z m -48.014,-39.631 c -0.289,0 -0.575,0.128 -0.768,0.372 -0.333,0.424 -0.26,1.038 0.163,1.371 0.512,0.403 12.549,9.875 14.933,11.147 0.326,0.173 0.645,0.353 0.969,0.536 2.019,1.136 4.307,2.425 9.056,2.844 13.799,1.218 21.709,11.536 24.341,14.991 2.169,3.547 2.304,6.759 0.342,8.03 -0.692,0.309 -1.032,0.322 -1.107,0.319 -0.488,-0.097 -0.981,0.189 -1.128,0.677 -0.154,0.516 0.139,1.06 0.655,1.215 0.263,0.079 1.025,0.191 2.451,-0.462 L 1.998,1.35 C 5.056,-0.546 5.18,-4.78 2.315,-9.435 L 2.26,-9.515 c -11.042,-14.494 -22.114,-15.471 -25.753,-15.792 -4.329,-0.382 -6.332,-1.51 -8.269,-2.601 -0.337,-0.189 -0.669,-0.376 -1.008,-0.557 -1.853,-0.988 -11.199,-8.245 -14.644,-10.958 -0.179,-0.141 -0.392,-0.209 -0.603,-0.209" />
      </g>
      <g
         transform="matrix(1.2873581,0,0,1.4421,306.96278,300.57174)"
         id="g118"
         style="fill:#f9f9f9">
        <path
           id="path120"
           style="fill:#f9f9f9;fill-opacity:1;fill-rule:nonzero;stroke:none"
           d="m 0,0 c -0.112,0 -0.226,0.02 -0.337,0.061 -0.506,0.186 -0.765,0.746 -0.579,1.252 0.006,0.016 0.589,1.636 0.609,3.527 0.025,2.35 -0.805,4.031 -2.466,4.995 -0.466,0.271 -0.625,0.869 -0.354,1.335 0.27,0.467 0.868,0.625 1.334,0.354 C 2.586,8.982 1.894,3.293 0.916,0.639 0.771,0.244 0.397,0 0,0" />
      </g>
      <g
         transform="matrix(1.2873581,0,0,1.4421,304.02451,306.55847)"
         id="g122"
         style="fill:#f9f9f9">
        <path
           id="path124"
           style="fill:#f9f9f9;fill-opacity:1;fill-rule:nonzero;stroke:none"
           d="m 0,0 c -0.012,0 -0.023,0 -0.035,0.001 -0.539,0.019 -0.961,0.471 -0.941,1.01 0.002,0.058 0.202,5.767 0.004,7.701 -0.178,1.737 -0.733,3.461 -3.561,4.3 -0.517,0.154 -0.812,0.697 -0.658,1.214 0.153,0.517 0.696,0.811 1.213,0.658 C 0.03,13.694 0.766,10.905 0.971,8.911 1.183,6.844 0.984,1.181 0.975,0.942 0.956,0.414 0.523,0 0,0" />
      </g>
      <g
         transform="matrix(1.2873581,0,0,1.4421,297.81172,322.72139)"
         id="g126"
         style="fill:#f9f9f9">
        <path
           id="path128"
           style="fill:#f9f9f9;fill-opacity:1;fill-rule:nonzero;stroke:none"
           d="m 0,0 c -0.102,0 -0.206,0.016 -0.308,0.05 -0.512,0.17 -0.789,0.723 -0.618,1.235 0.01,0.033 1.087,3.298 1.039,5.639 -0.039,1.911 -2.844,3.547 -4.716,3.718 -2.128,0.191 -3.421,-0.368 -4.184,-1.818 -0.637,-1.21 -2.283,-2.414 -4.402,-3.221 -2.286,-0.87 -4.674,-1.121 -6.722,-0.706 -0.529,0.107 -0.871,0.622 -0.764,1.15 0.108,0.529 0.624,0.871 1.151,0.763 3.833,-0.776 8.256,1.492 9.009,2.923 1.135,2.157 3.184,3.115 6.089,2.853 C -1.758,12.343 2.002,10.087 2.066,6.963 2.12,4.283 0.975,0.814 0.926,0.668 0.79,0.259 0.409,0 0,0" />
      </g>
      <g
         transform="matrix(1.2873581,0,0,1.4421,287.47552,337.20642)"
         id="g130"
         style="fill:#f9f9f9">
        <path
           id="path132"
           style="fill:#f9f9f9;fill-opacity:1;fill-rule:nonzero;stroke:none"
           d="m 0,0 c -0.034,0 -0.067,0.001 -0.101,0.005 -0.357,0.037 -3.531,0.39 -4.998,1.446 -1.065,0.768 -3.309,1.5 -4.752,0.881 -0.496,-0.212 -1.07,0.017 -1.282,0.513 -0.213,0.496 0.017,1.07 0.512,1.282 C -8.27,5.134 -5.286,3.993 -3.958,3.036 -3.169,2.468 -1.051,2.067 0.1,1.947 0.636,1.891 1.025,1.412 0.97,0.876 0.918,0.374 0.494,0 0,0" />
      </g>
      <g
         transform="matrix(1.2873581,0,0,1.4421,267.34305,329.4495)"
         id="g134"
         style="fill:#f9f9f9">
        <path
           id="path136"
           style="fill:#f9f9f9;fill-opacity:1;fill-rule:nonzero;stroke:none"
           d="m 0,0 c -1.564,0 -5.569,1.348 -7.373,2.688 -1.258,0.934 -1.644,2.787 -1.115,5.357 0.224,1.089 1.262,1.83 2.357,1.689 C -3.486,9.391 -0.126,9.226 0.917,9.543 2.39,9.989 5.457,10.918 7.765,7.539 9.408,5.135 12.486,3.723 12.517,3.71 13.008,3.487 13.226,2.909 13.004,2.418 12.781,1.926 12.203,1.71 11.712,1.93 11.566,1.997 8.101,3.586 6.153,6.438 4.766,8.469 3.217,8.2 1.483,7.674 -0.56,7.054 -6.144,7.767 -6.381,7.798 -6.47,7.812 -6.556,7.747 -6.576,7.651 -6.925,5.955 -6.788,4.685 -6.209,4.255 -4.503,2.988 -0.696,1.89 0.013,1.952 0.549,2.009 1.028,1.615 1.081,1.078 1.135,0.541 0.744,0.063 0.207,0.009 0.144,0.003 0.075,0 0,0" />
      </g>
      <g
         transform="matrix(1.2873581,0,0,1.4421,268.57801,322.56521)"
         id="g138"
         style="fill:#f9f9f9">
        <path
           id="path140"
           style="fill:#f9f9f9;fill-opacity:1;fill-rule:nonzero;stroke:none"
           d="M 0,0 C -0.553,0 -1.122,0.161 -1.622,0.302 -1.744,0.336 -1.863,0.37 -1.978,0.4 -2.27,0.476 -2.737,0.613 -3.306,0.781 c -1.666,0.49 -4.456,1.311 -5.943,1.46 -2.264,0.226 -4.906,1.777 -5.018,1.843 l -0.173,0.103 -0.118,0.162 c -0.777,1.066 -1.774,3.696 0.015,6.021 2.204,2.865 5.982,1.742 6.142,1.692 0.515,-0.159 0.804,-0.705 0.645,-1.221 -0.159,-0.514 -0.703,-0.803 -1.217,-0.646 -0.116,0.035 -2.654,0.764 -4.023,-1.015 -1.129,-1.467 -0.375,-3.032 -0.084,-3.524 0.601,-0.332 2.498,-1.32 4.026,-1.473 1.668,-0.166 4.455,-0.986 6.299,-1.53 0.544,-0.16 0.99,-0.291 1.27,-0.364 0.127,-0.033 0.259,-0.07 0.393,-0.108 0.31,-0.088 0.861,-0.24 1.111,-0.23 C 0.032,2.012 0.048,2.124 0.043,2.305 0.029,2.843 0.454,3.292 0.993,3.306 1.524,3.333 1.981,2.895 1.995,2.356 2.018,1.46 1.765,0.8 1.243,0.394 0.867,0.101 0.439,0 0,0" />
      </g>
      <g
         transform="matrix(1.2873581,0,0,1.4421,266.86106,312.33452)"
         id="g142"
         style="fill:#f9f9f9">
        <path
           id="path144"
           style="fill:#f9f9f9;fill-opacity:1;fill-rule:nonzero;stroke:none"
           d="m 0,0 -0.185,0.024 c -1.298,0.167 -2.771,0.652 -4.195,1.12 -1.367,0.449 -2.658,0.873 -3.645,0.979 -2.142,0.23 -6.932,0.617 -6.98,0.62 l -0.283,0.023 -0.227,0.172 c -0.128,0.096 -3.138,2.41 -2.466,5.451 0.592,2.68 2.472,4.271 5.438,4.6 0.537,0.063 1.018,-0.327 1.078,-0.862 0.059,-0.537 -0.327,-1.019 -0.863,-1.079 -2.144,-0.238 -3.335,-1.216 -3.747,-3.08 -0.324,-1.468 1.018,-2.837 1.538,-3.304 1.106,-0.09 4.874,-0.402 6.719,-0.6 1.194,-0.127 2.58,-0.583 4.047,-1.065 C -2.507,2.584 -1.203,2.155 -0.124,1.988 0.61,2.208 1.12,2.587 1.432,3.14 2.135,4.387 1.633,6.139 1.627,6.157 1.471,6.673 1.762,7.218 2.278,7.375 2.794,7.532 3.339,7.24 3.496,6.724 3.527,6.621 4.252,4.168 3.133,2.182 2.529,1.11 1.536,0.392 0.181,0.046 Z" />
      </g>
      <g
         transform="matrix(1.2873581,0,0,1.4421,262.22554,303.02836)"
         id="g146"
         style="fill:#f9f9f9">
        <path
           id="path148"
           style="fill:#f9f9f9;fill-opacity:1;fill-rule:nonzero;stroke:none"
           d="M 0,0 C -0.131,0 -0.265,0.003 -0.402,0.01 L -0.448,0.014 C -1.986,0.168 -4.853,1.259 -5.51,1.515 -6.085,1.6 -9.133,1.991 -11.139,1.239 c -0.767,-0.287 -1.563,-0.161 -2.242,0.354 -1.514,1.15 -2.161,3.964 -2.031,5.47 0.191,2.194 2.863,4.04 3.167,4.243 0.448,0.299 1.055,0.179 1.354,-0.269 0.3,-0.448 0.179,-1.054 -0.268,-1.354 -0.848,-0.57 -2.224,-1.832 -2.307,-2.789 -0.1,-1.141 0.497,-3.162 1.266,-3.746 0.181,-0.137 0.277,-0.118 0.376,-0.081 2.705,1.014 6.567,0.387 6.73,0.36 L -4.992,3.41 -4.896,3.372 C -4.005,3.02 -1.451,2.085 -0.277,1.959 3.188,1.797 3.766,4.831 3.82,5.178 3.904,5.709 4.398,6.078 4.931,5.995 5.462,5.915 5.829,5.424 5.752,4.892 5.5,3.164 3.974,0 0,0" />
      </g>
      <g
         transform="matrix(1.2873581,0,0,1.4421,246.28843,293.06056)"
         id="g150"
         style="fill:#f9f9f9">
        <path
           id="path152"
           style="fill:#f9f9f9;fill-opacity:1;fill-rule:nonzero;stroke:none"
           d="m 0,0 -0.63,0.481 c -0.433,0.333 -2.598,2.079 -2.664,3.799 -0.058,1.492 0.963,4.74 2.282,5.772 0.423,0.333 1.037,0.258 1.37,-0.166 C 0.69,9.461 0.616,8.848 0.191,8.515 -0.454,8.009 -1.386,5.482 -1.343,4.355 -1.327,3.94 -0.702,3.155 -0.005,2.508 0.934,3.174 2.762,4.28 4.87,4.559 7.09,4.852 8.219,6.978 8.23,6.999 8.479,7.478 9.069,7.664 9.547,7.415 10.026,7.166 10.212,6.577 9.963,6.098 9.898,5.974 8.342,3.048 5.125,2.623 2.71,2.304 0.622,0.534 0.601,0.516 Z" />
      </g>
      <g
         transform="matrix(1.2873581,0,0,1.4421,225.60278,279.02099)"
         id="g154"
         style="fill:#f9f9f9">
        <path
           id="path156"
           style="fill:#f9f9f9;fill-opacity:1;fill-rule:nonzero;stroke:none"
           d="m 0,0 c -0.358,0 -0.703,0.198 -0.874,0.54 -0.241,0.482 -0.046,1.069 0.437,1.31 1.239,0.62 11.93,7.403 15.945,9.964 0.454,0.29 1.058,0.157 1.348,-0.298 0.29,-0.454 0.156,-1.058 -0.298,-1.348 C 15.965,9.79 2.02,0.895 0.436,0.103 0.296,0.034 0.147,0 0,0" />
      </g>
      <g
         transform="matrix(1.2873581,0,0,1.4421,328.80487,276.62711)"
         id="g158"
         style="fill:#f9f9f9">
        <path
           id="path160"
           style="fill:#f9f9f9;fill-opacity:1;fill-rule:nonzero;stroke:none"
           d="m 0,0 c -0.178,0 -0.358,0.049 -0.52,0.151 -3.937,2.486 -13.665,9.985 -14.077,10.303 -0.427,0.329 -0.506,0.942 -0.176,1.369 0.329,0.427 0.942,0.506 1.369,0.177 C -13.304,11.923 -3.337,4.24 0.522,1.802 0.978,1.514 1.114,0.911 0.826,0.455 0.641,0.161 0.324,0 0,0" />
      </g>
      <g
         transform="matrix(1.2873581,0,0,1.4421,307.82454,246.92071)"
         id="g162"
         style="fill:#f9f9f9">
        <path
           id="path164"
           style="fill:#f9f9f9;fill-opacity:1;fill-rule:nonzero;stroke:none"
           d="m 0,0 c -0.251,0 -0.502,0.096 -0.693,0.289 l -15.808,15.94 c -0.38,0.383 -0.377,1.001 0.006,1.381 0.382,0.38 1,0.377 1.38,-0.006 L 0.693,1.664 C 1.073,1.281 1.07,0.663 0.687,0.283 0.497,0.094 0.248,0 0,0" />
      </g>
      <g
         transform="matrix(1.2873581,0,0,1.4421,278.8891,362.05913)"
         id="g166"
         style="fill:#f9f9f9">
        <path
           id="path168"
           style="fill:#f9f9f9;fill-opacity:1;fill-rule:nonzero;stroke:none"
           d="m 0,0 c -0.507,0 -0.918,0.411 -0.918,0.918 v 39.498 c 0,0.507 0.411,0.918 0.918,0.918 0.507,0 0.918,-0.411 0.918,-0.918 V 0.918 C 0.918,0.411 0.507,0 0,0" />
      </g>
      <g
         transform="matrix(1.2873581,0,0,1.4421,308.09449,355.66659)"
         id="g170"
         style="fill:#f9f9f9">
        <path
           id="path172"
           style="fill:#f9f9f9;fill-opacity:1;fill-rule:nonzero;stroke:none"
           d="m 0,0 c -0.116,0 -0.232,0.022 -0.345,0.068 -0.47,0.191 -0.697,0.726 -0.506,1.196 l 8.665,21.327 c 0.191,0.47 0.729,0.696 1.196,0.505 C 9.479,22.905 9.706,22.37 9.515,21.9 L 0.851,0.573 C 0.705,0.216 0.362,0 0,0" />
      </g>
      <g
         transform="matrix(1.2873581,0,0,1.4421,333.00359,337.43167)"
         id="g174"
         style="fill:#f9f9f9">
        <path
           id="path176"
           style="fill:#f9f9f9;fill-opacity:1;fill-rule:nonzero;stroke:none"
           d="m 0,0 c -0.23,0 -0.462,0.086 -0.64,0.26 -0.363,0.354 -0.371,0.935 -0.018,1.298 l 27.547,28.306 c 0.354,0.364 0.935,0.372 1.298,0.018 0.363,-0.353 0.371,-0.935 0.018,-1.298 L 0.658,0.278 C 0.478,0.093 0.239,0 0,0" />
      </g>
      <g
         transform="matrix(1.2873581,0,0,1.4421,349.95578,310.03394)"
         id="g178"
         style="fill:#f9f9f9">
        <path
           id="path180"
           style="fill:#f9f9f9;fill-opacity:1;fill-rule:nonzero;stroke:none"
           d="m 0,0 c -0.354,0 -0.69,0.205 -0.842,0.55 -0.203,0.464 0.008,1.006 0.473,1.209 l 20.919,9.17 c 0.467,0.202 1.006,-0.009 1.209,-0.473 C 21.963,9.992 21.751,9.45 21.287,9.247 L 0.368,0.078 C 0.247,0.025 0.123,0 0,0" />
      </g>
      <g
         transform="matrix(1.2873581,0,0,1.4421,356.46775,276.75444)"
         id="g182"
         style="fill:#f9f9f9">
        <path
           id="path184"
           style="fill:#f9f9f9;fill-opacity:1;fill-rule:nonzero;stroke:none"
           d="m 0,0 c -0.499,0 -0.908,0.4 -0.918,0.901 -0.009,0.507 0.395,0.925 0.901,0.935 L 39.474,2.57 C 39.991,2.577 40.399,2.175 40.409,1.669 40.418,1.162 40.015,0.743 39.508,0.734 L 0.017,0 Z" />
      </g>
      <g
         transform="matrix(1.2873581,0,0,1.4421,249.68487,355.66659)"
         id="g186"
         style="fill:#f9f9f9">
        <path
           id="path188"
           style="fill:#f9f9f9;fill-opacity:1;fill-rule:nonzero;stroke:none"
           d="M 0,0 C -0.363,0 -0.706,0.216 -0.851,0.573 L -9.515,21.9 c -0.191,0.47 0.035,1.005 0.504,1.196 0.472,0.191 1.006,-0.036 1.196,-0.505 L 0.85,1.264 C 1.041,0.794 0.815,0.259 0.345,0.068 0.232,0.022 0.115,0 0,0" />
      </g>
      <g
         transform="matrix(1.2873581,0,0,1.4421,224.77475,337.43167)"
         id="g190"
         style="fill:#f9f9f9">
        <path
           id="path192"
           style="fill:#f9f9f9;fill-opacity:1;fill-rule:nonzero;stroke:none"
           d="m 0,0 c -0.239,0 -0.478,0.093 -0.658,0.278 l -27.547,28.306 c -0.353,0.363 -0.345,0.945 0.018,1.298 0.363,0.353 0.944,0.346 1.298,-0.018 L 0.658,1.558 C 1.012,1.195 1.004,0.614 0.64,0.26 0.462,0.086 0.231,0 0,0" />
      </g>
      <g
         transform="matrix(1.2873581,0,0,1.4421,207.82359,310.03394)"
         id="g194"
         style="fill:#f9f9f9">
        <path
           id="path196"
           style="fill:#f9f9f9;fill-opacity:1;fill-rule:nonzero;stroke:none"
           d="m 0,0 c -0.123,0 -0.248,0.025 -0.368,0.078 l -20.92,9.169 c -0.464,0.203 -0.676,0.745 -0.472,1.209 0.204,0.464 0.746,0.675 1.209,0.473 L 0.369,1.759 C 0.833,1.556 1.045,1.014 0.841,0.55 0.69,0.205 0.353,0 0,0" />
      </g>
      <g
         transform="matrix(1.2873581,0,0,1.4421,201.3111,276.75444)"
         id="g198"
         style="fill:#f9f9f9">
        <path
           id="path200"
           style="fill:#f9f9f9;fill-opacity:1;fill-rule:nonzero;stroke:none"
           d="m 0,0 h -0.017 l -39.491,0.734 c -0.507,0.009 -0.911,0.428 -0.901,0.935 0.009,0.507 0.434,0.889 0.935,0.901 L 0.017,1.836 C 0.523,1.826 0.927,1.408 0.917,0.901 0.908,0.4 0.499,0 0,0" />
      </g>
    </g>
  </g>
</svg>
