<svg width="36" height="36" viewBox="0 0 36 36" fill="none" xmlns="http://www.w3.org/2000/svg">
<path d="M32.33 5.99979C32.1937 5.98575 32.0563 5.98575 31.92 5.99979H3.92C3.74054 6.00256 3.56228 6.02947 3.39 6.07979L17.84 20.4698L32.33 5.99979Z" fill="black"/>
<path d="M33.81 7.39014L19.25 21.8901C18.8753 22.2626 18.3684 22.4717 17.84 22.4717C17.3116 22.4717 16.8047 22.2626 16.43 21.8901L2 7.50014C1.95564 7.66318 1.93212 7.83118 1.93 8.00014V28.0001C1.93 28.5306 2.14071 29.0393 2.51579 29.4144C2.89086 29.7894 3.39957 30.0001 3.93 30.0001H31.93C32.4604 30.0001 32.9691 29.7894 33.3442 29.4144C33.7193 29.0393 33.93 28.5306 33.93 28.0001V8.00014C33.922 7.79179 33.8816 7.58597 33.81 7.39014V7.39014ZM5.3 28.0001H3.91V26.5701L11.18 19.3601L12.59 20.7701L5.3 28.0001ZM31.91 28.0001H30.51L23.22 20.7701L24.63 19.3601L31.9 26.5701L31.91 28.0001Z" fill="black"/>
</svg>
