<svg width="328" height="199" viewBox="0 0 328 199" fill="none" xmlns="http://www.w3.org/2000/svg">
<path d="M208.597 199C274.541 199 328 194.19 328 188.256C328 182.323 274.541 177.513 208.597 177.513C142.653 177.513 89.1941 182.323 89.1941 188.256C89.1941 194.19 142.653 199 208.597 199Z" fill="#3F3D56"/>
<path opacity="0.3" d="M150.234 87.7838L279.838 87.7838V7.62939e-06L150.234 7.62939e-06V87.7838Z" fill="#3F3D56"/>
<path d="M271.565 8.04301H233.19V49.8667H271.565V8.04301Z" fill="#F2F2F2"/>
<path d="M172.524 10.5708L209.521 10.5708V8.04303L172.524 8.04303V10.5708Z" fill="#F2F2F2"/>
<path d="M233.19 58.8289H246.288V56.3011H233.19V58.8289Z" fill="#F2F2F2"/>
<path d="M233.649 63.4249L271.105 63.4249V60.8971L233.649 60.8971V63.4249Z" fill="#F2F2F2"/>
<path d="M164.941 19.7628L218.253 19.7628V17.235L164.941 17.235V19.7628Z" fill="#F2F2F2"/>
<path d="M164.941 26.8867L218.253 26.8867V24.3589L164.941 24.3589V26.8867Z" fill="#F2F2F2"/>
<path d="M164.941 34.0105L218.253 34.0105V31.4827L164.941 31.4827V34.0105Z" fill="#F2F2F2"/>
<path d="M164.941 41.1343L218.253 41.1343V38.6065L164.941 38.6065V41.1343Z" fill="#F2F2F2"/>
<path d="M164.941 48.2581L218.253 48.2581V45.7303L164.941 45.7303V48.2581Z" fill="#F2F2F2"/>
<path d="M164.941 55.3819L218.253 55.3819V52.8541L164.941 52.8541V55.3819Z" fill="#F2F2F2"/>
<path d="M164.941 62.5058L218.253 62.5058V59.9779L164.941 59.9779V62.5058Z" fill="#F2F2F2"/>
<path d="M238.953 31.9252C239.521 31.521 240.147 31.2067 240.811 30.9933C245.018 29.4278 249.426 28.4681 253.904 28.1431C257.797 27.867 262.016 28.1949 265.057 30.6417C265.53 30.9888 265.917 31.4397 266.188 31.9599C266.571 32.7854 266.455 33.745 266.331 34.6464C266.303 34.996 266.215 35.3382 266.07 35.6578C265.661 36.4369 264.654 36.7098 263.779 36.6164C262.904 36.5229 262.083 36.1527 261.22 35.981C260.686 35.8879 260.145 35.8329 259.603 35.8164L254.19 35.5234C250.824 35.3411 247.414 35.1619 244.112 35.8413C243.096 36.024 242.113 36.3625 241.2 36.8447C240.446 37.2681 239.938 37.8757 239.239 37.0936C238.009 35.7196 237.329 33.1943 238.953 31.9252Z" fill="#2F2E41"/>
<path d="M247.341 34.319C247.341 34.319 254.622 31.0551 257.383 34.8212C260.145 38.5872 255.877 37.0808 255.877 37.0808L251.107 38.5872L245.834 37.583L247.341 34.319Z" fill="#F2F2F2"/>
<path d="M247.717 31.9339C247.717 31.9339 248.722 36.7042 247.968 37.9596C247.215 39.2149 252.237 40.9724 252.237 40.9724L257.007 38.9638C257.007 38.9638 255.751 31.1806 257.007 29.6742L247.717 31.9339Z" fill="#FFB9B9"/>
<path opacity="0.1" d="M247.717 31.9339C247.717 31.9339 248.722 36.7042 247.968 37.9596C247.215 39.2149 252.237 40.9724 252.237 40.9724L257.007 38.9638C257.007 38.9638 255.751 31.1806 257.007 29.6742L247.717 31.9339Z" fill="black"/>
<path d="M259.266 27.1635C259.265 29.1607 258.471 31.0755 257.058 32.4877C255.646 33.8999 253.731 34.694 251.734 34.6956C251.286 34.6964 250.838 34.6561 250.396 34.5751C248.987 34.3206 247.679 33.6693 246.626 32.6978C245.574 31.7262 244.82 30.4747 244.454 29.09C244.087 27.7052 244.123 26.2447 244.558 24.8797C244.992 23.5147 245.806 22.3019 246.906 21.3834C248.005 20.465 249.343 19.879 250.763 19.6943C252.184 19.5095 253.627 19.7337 254.925 20.3404C256.222 20.9472 257.32 21.9114 258.089 23.1199C258.858 24.3284 259.266 25.7311 259.266 27.1635Z" fill="#FFB9B9"/>
<path d="M263.814 50.0965H239.794L240.338 47.7319L242.696 37.4575L245.421 35.6168L245.424 35.6145L246.704 34.7481L247.34 34.3184C247.34 34.3184 247.717 34.4908 248.151 34.7252C248.278 34.7964 248.406 34.8699 248.535 34.9481C248.537 34.9458 248.537 34.9481 248.537 34.9481C248.746 35.0691 248.944 35.2066 249.13 35.3594C249.165 35.3916 249.195 35.4192 249.225 35.449C249.702 35.927 251.097 38.464 253.404 37.1656C253.521 37.1016 253.634 37.031 253.742 36.9542C254.344 36.538 254.917 36.0828 255.459 35.5915C255.944 35.148 256.258 34.8056 256.516 34.5689C256.631 34.4538 256.763 34.3563 256.906 34.2793C257.015 34.2225 257.136 34.1933 257.258 34.1943C258.012 34.1943 259.016 35.6995 259.016 35.6995L259.046 35.7868L259.048 35.7937L262.217 45.3075L263.814 50.0965Z" fill="#F2F2F2"/>
<path d="M239.794 50.0965H247.074C247.09 49.2549 247.046 48.4133 246.943 47.5779C246.72 45.8981 246.173 44.2803 245.828 42.6211C245.525 41.1672 245.378 39.685 245.389 38.1997C245.392 37.9952 245.396 37.7884 245.415 37.5816C245.433 37.108 245.569 36.6466 245.812 36.2396C245.984 35.9753 246.221 35.7501 246.405 35.4973C246.469 35.4146 246.525 35.3261 246.573 35.233V35.2307C246.596 35.1851 246.616 35.1383 246.635 35.0906C246.675 34.9807 246.698 34.8652 246.704 34.7482C246.745 33.9898 246.058 33.259 245.316 32.9465C244.274 32.5553 243.134 32.5094 242.064 32.8155C241.004 33.1221 239.979 33.5411 239.008 34.0656C238.679 34.2265 238.353 34.392 238.038 34.5758C237.662 34.789 237.317 35.0518 237.011 35.3571C236.23 36.1637 235.887 37.2875 235.612 38.3744C235.349 39.2053 235.259 40.0812 235.347 40.9482C235.35 40.9758 235.356 41.0056 235.361 41.0332C235.635 42.4649 236.802 43.5403 237.425 44.8594C238.146 46.3899 238.098 48.1731 237.811 49.8415C237.797 49.9265 237.781 50.0115 237.765 50.0965H239.794V50.0965Z" fill="#2F2E41"/>
<path d="M269.428 40.9022C268.514 43.907 267.851 46.9823 267.445 50.0965H257.067C256.796 49.3566 256.526 48.6159 256.256 47.8744C256.041 47.3148 255.856 46.7441 255.702 46.1647C255.538 45.4909 255.46 44.799 255.47 44.1056C255.47 43.9402 255.477 43.7724 255.491 43.607C255.492 43.6057 255.493 43.6041 255.493 43.6024C255.493 43.6007 255.492 43.599 255.491 43.5978C255.554 42.7232 255.756 41.8644 256.091 41.0539C256.244 40.6854 256.421 40.3269 256.619 39.9807C257.102 39.1074 257.685 38.2848 258.205 37.4299C258.528 36.9075 258.81 36.3604 259.048 35.7937C259.048 35.7925 259.048 35.7912 259.049 35.79C259.049 35.7888 259.05 35.7877 259.05 35.7868C259.36 35.0642 259.522 34.2867 259.526 33.5003C259.51 32.4869 257.796 30.7197 259.659 30.8898C262.203 31.1196 264.389 32.5834 266.381 34.2518C266.912 34.6976 267.431 35.1595 267.939 35.6145C268.725 36.3223 269.554 37.0944 269.791 38.1262C269.829 38.2907 269.851 38.4585 269.858 38.6272C269.844 39.4044 269.699 40.1736 269.428 40.9022Z" fill="#2F2E41"/>
<path d="M253.874 38.1307C253.612 37.4248 253.212 36.7788 252.695 36.2309C252.175 35.7908 251.558 35.4785 250.896 35.3191C250.037 35.0737 249.149 34.9464 248.255 34.9407C247.192 34.934 245.959 35.2193 245.508 36.182C245.149 36.9464 245.427 37.8517 245.788 38.615C245.942 39.0104 246.199 39.3575 246.532 39.6205C246.991 39.9303 247.584 39.9205 248.128 40.0242C248.97 40.2382 249.769 40.6 250.485 41.0926L252.347 42.2183L255.546 44.1519C255.462 44.101 255.492 41.9073 255.394 41.5478C255.077 40.3897 254.365 39.2275 253.874 38.1307Z" fill="#FFB9B9"/>
<path d="M259.077 23.2382C258.943 22.7877 258.648 22.4024 258.248 22.1558C258.268 21.6733 258.209 21.1907 258.073 20.7275C257.616 19.3789 256.536 19.4562 255.516 18.86C255.074 18.6014 255.101 18.3727 254.871 17.9479C254.569 17.3909 254.117 16.9298 253.567 16.6169C252.913 16.2002 252.222 15.771 251.448 15.7182C249.822 15.6074 248.575 17.1369 247.021 17.6278C246.336 17.8442 245.6 17.8531 244.911 18.0577C244.223 18.2622 243.536 18.7506 243.433 19.4617C243.386 19.7899 243.469 20.1267 243.421 20.4549C243.326 21.1072 242.753 21.564 242.37 22.1005C241.523 23.2869 241.62 24.9629 242.298 26.2538C242.44 26.5209 242.604 26.7765 242.786 27.0182C242.843 27.6284 243.018 28.2216 243.302 28.7645C243.979 30.0553 245.145 31.0199 246.363 31.8213C246.263 31.3932 246.202 30.9569 246.182 30.5178C246.165 30.3715 246.184 30.2232 246.237 30.0859C246.373 29.8024 246.731 29.727 247.005 29.5718C247.571 29.2502 247.792 28.5385 247.809 27.8878C247.825 27.2371 247.687 26.5853 247.755 25.938C247.758 25.7891 247.792 25.6424 247.855 25.5075C247.918 25.3725 248.008 25.2521 248.12 25.1543C248.329 25.0351 248.568 24.9782 248.808 24.9903C249.967 24.943 251.179 24.9217 252.201 24.3734C252.531 24.1543 252.886 23.9749 253.258 23.839C254.127 23.6124 255.015 24.2216 255.516 24.9672C256.017 25.7128 256.267 26.6001 256.729 27.3703C257.191 28.1406 257.99 28.8274 258.883 28.7362C258.933 28.7363 258.983 28.7258 259.029 28.7053C259.075 28.6849 259.116 28.655 259.15 28.6175C259.188 28.5483 259.206 28.4691 259.199 28.3901L259.249 24.9743C259.291 24.39 259.232 23.8029 259.077 23.2382Z" fill="#2F2E41"/>
<path d="M239.212 46.0497C239.376 47.3941 239.474 48.743 239.509 50.0965H233.19V44.7858C233.222 44.6571 233.256 44.5307 233.298 44.4043C233.693 43.1864 234.522 42.1661 235.242 41.1067C235.276 41.0538 235.313 41.001 235.347 40.9481C235.653 40.5012 235.916 40.0265 236.133 39.5303C236.237 39.2867 236.402 38.1078 236.577 38.0067C237.326 37.5724 237.935 39.4292 238.038 39.8428C238.406 41.3158 238.725 42.8027 238.967 44.3033C239.061 44.8847 239.143 45.4668 239.212 46.0497Z" fill="#2F2E41"/>
<path d="M271.147 50.0965H256.64C256.516 49.8047 256.394 49.5128 256.265 49.2233C255.361 47.1771 254.191 45.2587 252.786 43.5173C252.555 43.2871 252.404 42.988 252.357 42.6648C252.352 42.5306 252.384 42.3977 252.451 42.281C252.671 41.8697 253.255 41.6284 253.728 41.4331C254.218 41.236 254.668 40.9527 255.057 40.5966C255.401 40.2869 255.664 39.898 255.824 39.4636C255.867 39.3362 255.899 39.2056 255.921 39.073C255.987 39.1603 256.056 39.2499 256.123 39.3372C256.286 39.5533 256.451 39.767 256.619 39.9807C258.228 42.0466 259.995 44.0826 262.217 45.3075C262.797 45.631 263.411 45.8921 264.046 46.0865C264.107 46.1132 264.173 46.127 264.239 46.127C264.306 46.127 264.371 46.1132 264.432 46.0865C264.526 46.0096 264.586 45.8991 264.6 45.7786C264.798 44.9513 264.866 44.0987 265.011 43.26C265.277 41.7339 265.789 40.2609 266.526 38.8984C266.937 38.1331 268.274 35.3365 269.122 37.099C269.366 37.6069 269.611 38.1162 269.858 38.6272C270.012 38.9512 270.168 39.2729 270.324 39.597C270.901 40.6249 271.164 41.7993 271.08 42.975C271.103 45.3511 271.125 47.725 271.147 50.0965Z" fill="#2F2E41"/>
<path opacity="0.1" d="M239.794 50.0965H241.051L240.338 47.7319L239.311 44.3239C239.323 44.9009 239.29 45.4779 239.212 46.0497C239.057 47.2316 238.719 48.3821 238.211 49.46C238.112 49.6691 238.006 49.8805 237.921 50.0965H239.794Z" fill="black"/>
<path opacity="0.1" d="M265.397 42.8294C265.22 43.3054 265.381 43.8318 265.518 44.321C265.913 45.7399 266.097 47.2092 266.065 48.6818C266.071 48.7076 266.07 48.7344 266.063 48.7598C266.056 48.7851 266.042 48.8083 266.024 48.8272C266.006 48.8461 265.983 48.8601 265.957 48.8679C265.932 48.8758 265.906 48.8772 265.88 48.8721C265.3 48.9076 264.637 48.9113 264.244 48.4841L265.397 42.8294Z" fill="black"/>
<path opacity="0.3" d="M129.603 0.903534H0V88.6873H129.603V0.903534Z" fill="#3F3D56"/>
<path d="M46.6479 8.94655H8.27255V50.7703H46.6479V8.94655Z" fill="#F2F2F2"/>
<path d="M107.313 8.94655H70.3166V11.4744H107.313V8.94655Z" fill="#F2F2F2"/>
<path d="M21.8303 57.2047H8.73212V59.7325H21.8303V57.2047Z" fill="#F2F2F2"/>
<path d="M46.1883 61.8007H8.73212V64.3285H46.1883V61.8007Z" fill="#F2F2F2"/>
<path d="M114.896 18.1386H61.5845V20.6664H114.896V18.1386Z" fill="#F2F2F2"/>
<path d="M114.896 25.2624H61.5845V27.7902H114.896V25.2624Z" fill="#F2F2F2"/>
<path d="M114.896 32.3862H61.5845V34.914H114.896V32.3862Z" fill="#F2F2F2"/>
<path d="M114.896 39.51H61.5845V42.0378H114.896V39.51Z" fill="#F2F2F2"/>
<path d="M114.896 46.6338H61.5845V49.1616H114.896V46.6338Z" fill="#F2F2F2"/>
<path d="M114.896 53.7577H61.5845V56.2855H114.896V53.7577Z" fill="#F2F2F2"/>
<path d="M114.896 60.8815H61.5845V63.4093H114.896V60.8815Z" fill="#F2F2F2"/>
<path d="M45.6047 51.0001H40.6159C40.2321 49.9683 39.8913 48.9234 39.5933 47.8656C39.3967 46.6218 38.8298 45.4661 37.9664 44.5495C37.7028 44.2557 37.468 43.9371 37.2655 43.5982C36.8378 42.7637 36.6835 41.8159 36.8243 40.8888C36.853 40.6308 36.896 40.3746 36.953 40.1213C37.1713 39.1401 37.5367 38.1979 37.8423 37.2419C37.9069 37.0478 38.0247 36.8757 38.1823 36.7453C38.34 36.6148 38.5311 36.5313 38.7339 36.5042C39.0628 36.4491 39.4005 36.4882 39.7082 36.6168C39.7762 36.6445 39.8416 36.6784 39.9035 36.7179C40.4481 37.0466 40.7308 37.7176 40.9583 38.3312C41.9992 41.1255 43.0394 43.9199 44.0789 46.7143C44.2811 47.2566 44.4833 47.8005 44.6855 48.3459C44.9842 49.1456 45.2807 49.9453 45.5335 50.7611C45.5587 50.8415 45.5817 50.9196 45.6047 51.0001Z" fill="#D0CDE1"/>
<path d="M24.8363 14.2207C23.596 14.6396 22.4722 15.6194 22.2182 16.9037C22.1005 17.4991 22.1727 18.118 22.0736 18.7168C21.8438 20.1054 20.7538 21.1659 19.7485 22.151C18.7431 23.136 17.7049 24.2806 17.6315 25.6862C17.5512 27.2254 18.6674 28.6674 18.4743 30.1965C18.2499 31.973 16.3736 33.1242 15.9097 34.8537C15.6 36.0086 15.9795 37.2526 16.6039 38.2723C17.7938 40.2154 19.8277 41.5346 21.9936 42.2418C24.1595 42.949 26.4663 43.0978 28.7446 43.1216C31.5187 43.1507 34.5306 42.9125 36.615 41.0816C37.8056 40.0264 38.5533 38.5601 38.7082 36.9767C38.9062 34.8558 38.021 32.6644 38.6316 30.6237C39.0158 29.3394 39.9794 28.1664 39.8356 26.8336C39.695 25.5304 38.5569 24.6067 37.7761 23.5539C37.0471 22.571 36.6047 21.4101 36.1712 20.2657L34.6877 16.35C34.3961 15.5802 34.0759 14.7706 33.426 14.2654C32.2094 13.3196 30.2531 13.5054 28.8305 13.7005C27.5108 13.8815 26.1055 13.792 24.8363 14.2207Z" fill="#2F2E41"/>
<path d="M25.9839 27.1253C25.9839 27.1253 26.1291 31.4813 25.6935 31.9169C25.2579 32.3525 27.4358 35.2566 27.4358 35.2566L31.3561 35.1114L33.3889 33.5141L31.6465 31.1909C31.6465 31.1909 30.9206 27.4157 31.5014 26.5445C32.0822 25.6733 25.9839 27.1253 25.9839 27.1253Z" fill="#A0616A"/>
<path opacity="0.1" d="M25.9839 27.1253C25.9839 27.1253 26.1291 31.4813 25.6935 31.9169C25.2579 32.3525 27.4358 35.2566 27.4358 35.2566L31.3561 35.1114L33.3889 33.5141L31.6465 31.1909C31.6465 31.1909 30.9206 27.4157 31.5014 26.5445C32.0822 25.6733 25.9839 27.1253 25.9839 27.1253Z" fill="black"/>
<path d="M28.3796 28.7951C31.2665 28.7951 33.6067 26.4548 33.6067 23.5678C33.6067 20.6809 31.2665 18.3406 28.3796 18.3406C25.4928 18.3406 23.1525 20.6809 23.1525 23.5678C23.1525 26.4548 25.4928 28.7951 28.3796 28.7951Z" fill="#A0616A"/>
<path d="M31.0588 51H35.2962C35.4547 50.7128 35.6041 50.4141 35.7765 50.1429V50.1406C35.9649 49.8127 36.2298 49.5351 36.5486 49.3317C36.7513 49.2389 36.9431 49.124 37.1207 48.9893C37.2907 48.805 37.4109 48.5803 37.47 48.3367C37.7619 47.4249 37.9228 46.4763 37.948 45.5193C37.9549 45.1976 37.948 44.8713 37.9664 44.5496C37.9754 44.2982 38.0078 44.0481 38.0629 43.8027C38.2083 43.3037 38.4193 42.8261 38.6902 42.3825C39.2647 41.3369 39.8407 40.2914 40.4183 39.2458C40.5224 38.9512 40.5623 38.6378 40.5355 38.3266C40.523 37.9067 40.3942 37.4985 40.1632 37.1477C40.0828 37.0029 39.9955 36.8581 39.9035 36.718C39.5491 36.1524 39.1362 35.6256 38.6718 35.1461C37.6865 34.1127 36.4906 33.3032 35.1652 32.7723C34.9989 32.7163 34.8406 32.6391 34.6941 32.5425C34.5213 32.3964 34.3751 32.2215 34.2621 32.0254C33.8025 31.3337 33.2418 30.5547 32.4123 30.5984C32.2773 30.5306 32.1301 30.4904 31.9794 30.4802C31.8287 30.4699 31.6774 30.4898 31.5345 30.5386C31.4908 30.55 31.4479 30.5638 31.4058 30.58C31.0888 30.7204 30.781 30.8808 30.4843 31.0603C29.7211 31.4565 28.8563 31.6134 28.0026 31.5107C27.9024 31.5037 27.8044 31.4788 27.713 31.4371C27.6161 31.3757 27.5267 31.3032 27.4465 31.2211C27.2368 31.0494 26.9853 30.9364 26.7176 30.8936C26.4499 30.8508 26.1757 30.8798 25.9229 30.9775C25.6856 31.0621 25.4758 31.2099 25.3163 31.405C25.1646 31.5957 25.0589 31.8255 24.8912 32.0048C24.4569 32.469 23.7399 32.4873 23.1057 32.485C21.7884 32.4482 20.4715 32.5694 19.1831 32.8458C18.0515 33.0969 16.9941 33.6083 16.0947 34.3395L16.0924 34.3418C15.9683 34.4475 15.8534 34.5555 15.7385 34.6704C15.4772 34.9166 15.2691 35.2138 15.1273 35.5437C14.9526 35.9941 14.9756 36.502 14.817 36.9593C14.6424 37.4717 14.2541 37.8899 14.0978 38.4047C13.9783 38.7954 13.9944 39.2274 13.7968 39.5813C13.806 39.5882 13.8129 39.5951 13.822 39.602C14.6585 40.3373 15.3731 41.3025 16.2119 42.0309C16.6987 42.4018 17.1104 42.862 17.4252 43.3868C17.4858 43.5047 17.5357 43.6277 17.5746 43.7545C17.6689 44.1938 17.7106 44.6427 17.6986 45.0919C17.8044 47.2405 18.9694 49.1892 20.2723 50.8989C20.2976 50.9334 20.3229 50.9679 20.3505 51.0001L31.0588 51Z" fill="#D0CDE1"/>
<path d="M17.4252 43.3867C17.2276 44.7586 17.0284 46.1298 16.8277 47.5002C16.7365 48.2341 16.5999 48.9617 16.4187 49.6787C16.2992 50.1222 16.1452 50.5565 16.0372 51H10.0534C10.0565 50.7516 10.0757 50.5037 10.1109 50.2578C10.265 49.3744 10.5154 48.5105 10.8577 47.6817C11.554 45.8019 12.2495 43.9207 12.9442 42.0378C13.2407 41.2358 13.4957 40.397 13.822 39.6019C13.8795 39.4549 13.9415 39.3078 14.0082 39.1653C14.3551 38.4024 15.318 38.7149 16.0304 38.8298C16.2259 38.8541 16.4166 38.9084 16.5956 38.9907C16.8122 39.11 16.9948 39.2823 17.1265 39.4916C17.8021 40.4913 17.655 41.8126 17.4803 43.0076C17.462 43.134 17.4436 43.2604 17.4252 43.3867Z" fill="#D0CDE1"/>
<path d="M35.7764 50.1429C35.7856 50.175 35.8844 50.5174 36.0476 51H31.0588C33.5314 50.5749 35.7764 50.1406 35.7764 50.1406V50.1429Z" fill="#2F2E41"/>
<path d="M28.8152 23.5678C31.9426 23.5678 34.4779 22.2026 34.4779 20.5186C34.4779 18.8345 31.9426 17.4694 28.8152 17.4694C25.6878 17.4694 23.1525 18.8345 23.1525 20.5186C23.1525 22.2026 25.6878 23.5678 28.8152 23.5678Z" fill="#2F2E41"/>
<path d="M212.629 33.2198H83.0262V121.004H212.629V33.2198Z" fill="#3F3D56"/>
<path opacity="0.1" d="M193.786 115.029C202.162 115.029 208.953 114.309 208.953 113.42C208.953 112.532 202.162 111.812 193.786 111.812C185.41 111.812 178.62 112.532 178.62 113.42C178.62 114.309 185.41 115.029 193.786 115.029Z" fill="black"/>
<path d="M129.674 41.2628H91.2988V83.0865H129.674V41.2628Z" fill="#F2F2F2"/>
<path d="M103.656 60.4654C103.781 60.5033 103.915 60.4968 104.035 60.4471C104.155 60.3973 104.255 60.3074 104.316 60.1926C104.847 59.3563 103.87 58.2779 104.081 57.3102C104.251 56.535 105.132 56.0749 105.312 55.302C105.487 54.5511 104.948 53.7046 105.312 53.0252C105.598 52.4928 106.311 52.3527 106.908 52.446C107.505 52.5392 108.071 52.8016 108.674 52.8384C109.478 52.8874 110.243 52.5337 111.029 52.3584C111.815 52.1832 112.773 52.2518 113.235 52.9109C113.829 53.7571 113.227 54.9354 113.433 55.9482C113.597 56.7523 114.271 57.4182 114.285 58.2388C114.29 58.5305 113.523 58.2955 113.564 58.5844C113.605 58.8732 113.243 58.6189 113.532 58.5846C113.651 58.5556 113.757 58.4897 113.835 58.3965C113.913 58.3033 113.96 58.1875 113.968 58.066C114.003 57.8254 114.455 57.7453 114.449 57.5023C114.437 56.9328 115.467 57.3168 115.636 56.773C116.026 55.5053 115.946 54.1396 115.411 52.9262C115.135 52.4305 114.915 51.9058 114.754 51.3618C114.603 50.6067 114.841 49.7962 114.592 49.0676C114.255 48.0858 113.143 47.5853 112.11 47.4837C111.078 47.382 110.028 47.564 109.001 47.4141C108.081 47.2798 107.191 46.8811 106.263 46.9389C105.15 47.0082 104.181 47.7256 103.409 48.531C102.637 49.3364 101.983 50.2628 101.106 50.9528C100.838 51.1375 100.59 51.3506 100.368 51.5885C99.9215 52.1325 99.8762 52.9075 100 53.6002C100.125 54.2929 100.395 54.9537 100.509 55.6481C100.616 56.3007 100.583 56.9675 100.629 57.6272C100.64 58.2926 100.841 58.941 101.21 59.4954C101.369 59.7113 101.575 59.8882 101.813 60.0124C102.05 60.1366 102.313 60.2049 102.582 60.2121C102.767 60.2164 102.924 60.0495 103.112 60.093C103.346 60.1474 103.448 60.37 103.656 60.4654Z" fill="#2F2E41"/>
<path d="M95.2167 83.3163C95.3845 81.016 95.5109 79.2971 95.5109 79.2971L96.5955 76.4384L100.077 83.3163L95.2167 83.3163Z" fill="#575A89"/>
<path opacity="0.1" d="M95.2167 83.3163C95.3845 81.016 95.5109 79.2971 95.5109 79.2971L96.5955 76.4384L100.077 83.3163L95.2167 83.3163Z" fill="black"/>
<path d="M103.285 60.6994C103.285 60.6994 106.531 68.9627 104.662 70.5367C102.793 72.1107 115.089 67.8806 115.089 67.8806L114.794 66.7985C114.794 66.7985 110.761 65.2245 112.728 60.6994C114.695 56.1742 103.285 60.6994 103.285 60.6994Z" fill="#A0616A"/>
<path opacity="0.1" d="M103.285 60.6994C103.285 60.6994 106.531 68.9627 104.662 70.5367C102.793 72.1107 115.089 67.8806 115.089 67.8806L114.794 66.7985C114.794 66.7985 110.761 65.2245 112.728 60.6994C114.695 56.1742 103.285 60.6994 103.285 60.6994Z" fill="black"/>
<path d="M107.908 64.0441C111.711 64.0441 114.794 60.9611 114.794 57.158C114.794 53.3549 111.711 50.2719 107.908 50.2719C104.105 50.2719 101.022 53.3549 101.022 57.158C101.022 60.9611 104.105 64.0441 107.908 64.0441Z" fill="#A0616A"/>
<path d="M124.63 72.0124C124.63 72.0124 124.603 72.5593 124.554 73.5153C124.456 75.4617 124.279 79.1086 124.102 83.3163H97.409C96.7115 82.3821 96.1405 81.3598 95.7108 80.276C95.5945 79.9618 95.5271 79.6317 95.5109 79.2971C95.3638 76.6888 97.7008 73.0488 99.3507 72.7018C101.219 72.3065 104.76 68.57 104.76 68.57C104.771 68.7122 104.819 68.8492 104.897 68.9682C104.976 69.0872 105.084 69.1842 105.21 69.2502V69.2525C105.496 69.4 105.815 69.4698 106.136 69.4547C107.29 69.4547 112.364 67.1131 113.993 66.3478C114.313 66.1985 114.499 66.1088 114.499 66.1088C116.378 66.9198 118.319 67.5784 120.303 68.0782C121.293 68.3252 122.207 68.8139 122.962 69.5004C123.717 70.187 124.29 71.0501 124.63 72.0124Z" fill="#575A89"/>
<path d="M102.476 59.7768C102.6 59.8147 102.734 59.8082 102.855 59.7584C102.975 59.7087 103.074 59.6188 103.136 59.504C103.667 58.6677 102.689 57.5893 102.901 56.6216C103.071 55.8464 103.951 55.3863 104.132 54.6134C104.307 53.8625 103.767 53.016 104.132 52.3365C104.417 51.8042 105.131 51.6641 105.727 51.7574C106.324 51.8506 106.891 52.113 107.494 52.1498C108.297 52.1988 109.063 51.8451 109.849 51.6698C110.634 51.4946 111.593 51.5632 112.055 52.2222C112.648 53.0685 112.046 54.2468 112.253 55.2595C112.417 56.0637 114.286 56.6281 114.456 56.0844C114.846 54.8167 114.766 53.451 114.231 52.2376C113.955 51.7419 113.734 51.2172 113.574 50.6732C113.423 49.9181 113.661 49.1075 113.411 48.379C113.075 47.3972 111.963 46.8967 110.93 46.7951C109.897 46.6934 108.848 46.8754 107.821 46.7255C106.901 46.5912 106.01 46.1925 105.083 46.2503C103.969 46.3196 103 47.0369 102.229 47.8424C101.457 48.6478 100.802 49.5742 99.9258 50.2642C99.6575 50.4489 99.4099 50.662 99.1874 50.8999C98.741 51.4439 98.6958 52.2189 98.8199 52.9116C98.9441 53.6043 99.2143 54.2651 99.3284 54.9595C99.4357 55.6121 99.4026 56.2789 99.4488 56.9386C99.4596 57.604 99.661 58.2524 100.029 58.8068C100.188 59.0227 100.395 59.1996 100.632 59.3238C100.87 59.448 101.133 59.5163 101.401 59.5235C101.587 59.5278 101.744 59.3609 101.931 59.4044C102.166 59.4588 102.268 59.6814 102.476 59.7768Z" fill="#2F2E41"/>
<path opacity="0.1" d="M128.043 83.3163H120.253C119.66 78.9684 119.17 74.423 119.17 74.423L120.744 73.7336L123.943 72.0124C123.943 72.0124 124.178 72.5685 124.554 73.5153C125.359 75.5398 126.818 79.3499 128.043 83.3163Z" fill="black"/>
<path d="M128.73 83.3163H119.938C118.635 78.5594 117.35 73.3889 117.35 73.3889L120.696 70.93L124.63 72.0124C124.63 72.0124 126.933 77.4931 128.73 83.3163Z" fill="#575A89"/>
<path d="M190.339 41.2628H153.343V43.7906H190.339V41.2628Z" fill="#F9A826"/>
<path d="M104.857 89.5209H91.7584V92.0487H104.857V89.5209Z" fill="#F9A826"/>
<path d="M129.215 94.1169H91.7584V96.6447H129.215V94.1169Z" fill="#F9A826"/>
<path d="M197.923 50.4548H144.611V52.9826H197.923V50.4548Z" fill="#F2F2F2"/>
<path d="M197.923 57.5786H144.611V60.1064H197.923V57.5786Z" fill="#F2F2F2"/>
<path d="M197.923 64.7024H144.611V67.2302H197.923V64.7024Z" fill="#F2F2F2"/>
<path d="M197.923 71.8262H144.611V74.354H197.923V71.8262Z" fill="#F2F2F2"/>
<path d="M197.923 78.9501H144.611V81.4779H197.923V78.9501Z" fill="#F2F2F2"/>
<path d="M197.923 86.0739H144.611V88.6017H197.923V86.0739Z" fill="#F2F2F2"/>
<path d="M197.923 93.1977H144.611V95.7255H197.923V93.1977Z" fill="#F2F2F2"/>
<path d="M208.198 93.5392L193.625 108.113L187.5 101.988C187.305 101.793 187.075 101.639 186.821 101.534C186.566 101.428 186.294 101.374 186.019 101.374C185.744 101.374 185.472 101.428 185.218 101.534C184.964 101.639 184.733 101.793 184.539 101.988L184.319 101.658C183.501 102.476 183.721 104.131 184.539 104.949L192.486 112.897C192.786 113.196 193.192 113.364 193.615 113.364C194.039 113.365 194.445 113.196 194.745 112.897L211.158 96.5005C211.976 95.6831 212.273 94.1842 211.455 93.3664C210.638 92.5489 209.016 92.7217 208.198 93.5392Z" fill="#57B894"/>
<path opacity="0.1" d="M208.198 93.5392L193.625 108.113L187.5 101.988C187.305 101.793 187.075 101.639 186.821 101.534C186.566 101.428 186.294 101.374 186.019 101.374C185.744 101.374 185.472 101.428 185.218 101.534C184.964 101.639 184.733 101.793 184.539 101.988L184.319 101.658C183.501 102.476 183.721 104.131 184.539 104.949L192.486 112.897C192.786 113.196 193.192 113.364 193.615 113.364C194.039 113.365 194.445 113.196 194.745 112.897L211.158 96.5005C211.976 95.6831 212.273 94.1842 211.455 93.3664C210.638 92.5489 209.016 92.7217 208.198 93.5392Z" fill="black"/>
<path d="M208.198 92.8931L193.625 107.467L187.5 101.341C187.305 101.147 187.075 100.993 186.821 100.888C186.566 100.782 186.294 100.728 186.019 100.728C185.744 100.728 185.472 100.782 185.218 100.888C184.964 100.993 184.733 101.147 184.539 101.341C184.344 101.536 184.19 101.767 184.085 102.021C183.98 102.275 183.925 102.547 183.925 102.822C183.925 103.097 183.98 103.369 184.085 103.623C184.19 103.877 184.344 104.108 184.539 104.303L192.486 112.25C192.786 112.55 193.192 112.718 193.615 112.718C194.039 112.718 194.445 112.55 194.745 112.251L211.158 95.8544C211.353 95.66 211.507 95.4292 211.612 95.1752C211.718 94.9212 211.772 94.6489 211.772 94.3739C211.772 94.0989 211.718 93.8266 211.613 93.5725C211.508 93.3184 211.353 93.0875 211.159 92.8931C210.766 92.5005 210.234 92.2799 209.679 92.2799C209.123 92.2799 208.591 92.5005 208.198 92.8931Z" fill="#57B894"/>
<path opacity="0.1" d="M315.415 177.305C315.415 193.738 292.511 188.655 264.467 188.655C236.423 188.655 213.859 193.738 213.859 177.305C213.859 160.873 236.76 157.299 264.804 157.299C292.848 157.299 315.415 160.873 315.415 177.305Z" fill="black"/>
<path d="M315.415 174.236C315.415 190.668 292.511 185.585 264.467 185.585C236.423 185.585 213.859 190.668 213.859 174.236C213.859 157.803 236.76 154.229 264.804 154.229C292.848 154.229 315.415 157.803 315.415 174.236Z" fill="#3F3D56"/>
<path d="M219.669 122.756L218.631 123.961C218.631 123.961 206.012 125.146 206.524 127.194C207.036 129.243 221.718 124.463 221.718 124.463L219.669 122.756Z" fill="#FFC1C7"/>
<path d="M242.544 121.731C242.544 121.731 229.058 126.512 221.718 124.463L225.132 131.292C225.132 131.292 242.544 130.779 245.617 127.707C248.69 124.634 242.544 121.731 242.544 121.731Z" fill="#F9A826"/>
<path opacity="0.1" d="M242.544 121.731C242.544 121.731 229.058 126.512 221.718 124.463L225.132 131.292C225.132 131.292 242.544 130.779 245.617 127.707C248.69 124.634 242.544 121.731 242.544 121.731Z" fill="black"/>
<path d="M233.411 85.1125C238.408 85.1125 242.459 81.0616 242.459 76.0645C242.459 71.0674 238.408 67.0164 233.411 67.0164C228.414 67.0164 224.364 71.0674 224.364 76.0645C224.364 81.0616 228.414 85.1125 233.411 85.1125Z" fill="#FFC1C7"/>
<path d="M241.126 84.5589C241.438 85.1535 241.832 85.7007 242.298 86.1838C243.538 87.5321 245.017 88.6388 246.66 89.4474C241.524 90.4911 236.337 91.2624 231.121 91.7581C231.671 89.8184 230.946 87.7438 229.972 85.9784C228.998 84.2131 227.756 82.5677 227.146 80.6458L233.261 80.8102C234.371 80.84 235.484 80.8732 236.593 80.8189C237.423 80.7783 238.804 80.2815 239.578 80.4645C241.214 80.8513 240.412 83.1077 241.126 84.5589Z" fill="#FFC1C7"/>
<path d="M261.664 127.024L266.786 133.17C266.786 133.17 275.321 153.143 256.714 155.192C238.106 157.241 224.278 153.656 224.278 153.656C224.278 153.656 216.767 150.071 216.596 152.802C216.426 155.533 215.743 163.216 211.646 170.727L208.061 178.922C208.061 178.922 206.183 180.8 206.695 183.36C207.207 185.921 195.257 186.775 195.428 183.36C195.428 183.36 197.135 180.458 197.135 178.751C197.135 177.044 199.866 172.947 199.866 172.947L204.817 148.363C204.817 148.363 204.476 135.73 216.084 138.12C227.692 140.51 244.252 137.608 244.252 137.608L248.007 124.463L261.664 127.024Z" fill="#2F2E41"/>
<path opacity="0.1" d="M261.664 127.024L266.786 133.17C266.786 133.17 275.321 153.143 256.714 155.192C238.106 157.241 224.278 153.656 224.278 153.656C224.278 153.656 216.767 150.071 216.596 152.802C216.426 155.533 215.743 163.216 211.646 170.727L208.061 178.922C208.061 178.922 206.183 180.8 206.695 183.36C207.207 185.921 195.257 186.775 195.428 183.36C195.428 183.36 197.135 180.458 197.135 178.751C197.135 177.044 199.866 172.947 199.866 172.947L204.817 148.363C204.817 148.363 204.476 135.73 216.084 138.12C227.692 140.51 244.252 137.608 244.252 137.608L248.007 124.463L261.664 127.024Z" fill="black"/>
<path d="M242.459 126.574C242.459 126.574 258.079 120.707 266.785 133.17C266.785 133.17 269.005 152.461 260.128 153.314C251.251 154.168 239.642 153.997 236.911 151.095C234.179 148.193 216.938 139.998 216.938 139.998C216.938 139.998 208.355 135.62 206.671 141.309C204.988 146.998 204.817 148.363 204.817 148.363C204.817 148.363 195.94 154.851 192.355 156.046C192.355 156.046 189.965 159.46 188.599 159.46C187.234 159.46 178.869 161.338 179.722 155.021L193.55 142.388L207.378 128.902C207.378 128.902 211.304 123.097 221.376 126.17C228.06 128.16 234.841 129.812 241.691 131.121L242.459 126.574Z" fill="#2F2E41"/>
<path d="M206.183 183.019C206.183 183.019 209.426 191.214 206.695 192.238C203.964 193.262 198.159 192.579 198.159 192.579C198.159 192.579 191.331 191.726 189.624 191.896C187.917 192.067 180.917 190.701 181.942 187.97C182.966 185.238 188.258 185.921 188.258 185.921L193.038 183.702C193.038 183.702 193.55 181.995 194.745 182.678C195.94 183.36 199.354 185.921 206.183 183.019Z" fill="#CBCEDA"/>
<path d="M188.429 158.777C188.429 158.777 192.014 166.801 186.209 166.118C180.405 165.435 175.967 164.24 174.26 164.069C172.618 163.905 167.974 162.319 168.687 159.16C168.725 158.956 168.74 158.748 168.733 158.54C168.733 158.116 169.309 157.283 173.918 157.411C173.918 157.411 177.332 157.411 178.698 155.021C178.698 155.021 183.819 161.509 188.429 158.777Z" fill="#CBCEDA"/>
<path d="M227.18 90.4901C227.18 90.4901 239.472 82.8078 249.714 90.4901C259.957 98.1724 266.785 133.17 266.785 133.17L243.057 127.877C243.057 127.877 242.032 123.78 240.667 123.097C239.301 122.414 239.13 119.512 239.13 119.512C239.13 119.512 231.79 117.293 232.302 108.757C232.814 100.221 227.18 90.4901 227.18 90.4901Z" fill="#F9A826"/>
<path d="M233.497 90.8315H227.18C227.18 90.8315 223.425 95.0995 222.913 105.855L220.864 114.391C220.864 114.391 216.596 124.634 219.157 126.341C221.718 128.048 226.668 127.877 227.692 124.463C228.717 121.049 235.716 101.245 235.716 101.245L233.497 90.8315Z" fill="#F9A826"/>
<path d="M231.686 64.2892C233.252 63.647 234.966 63.452 236.636 63.7258C238.306 63.9997 239.868 64.7317 241.147 65.8404C244.425 68.7663 245.087 73.5394 245.916 77.8549C246.745 82.1704 248.412 86.9762 252.479 88.6399C250.646 88.8848 248.785 88.8307 246.969 88.4796L253.115 93.9877L242.762 90.6129C239.512 89.5537 236.1 88.4812 232.735 89.0794C227.16 90.0703 223.279 95.3109 217.925 97.152L218.52 94.2486L214.928 94.221C215.789 93.5843 216.492 92.7596 216.986 91.8097C216.817 91.6041 216.608 91.4345 216.372 91.311C216.136 91.1875 215.877 91.1126 215.612 91.0907C214.115 81.7504 219.661 72.5175 226.889 66.4152C228.31 65.2149 229.884 64.0621 231.72 63.7618C233.556 63.4616 235.699 64.2827 236.338 66.0303" fill="#2F2E41"/>
<path d="M75.0451 149.89C75.0451 169.541 87.3723 185.441 102.606 185.441L75.0451 149.89Z" fill="#3F3D56"/>
<path d="M102.606 185.441C102.606 165.57 116.363 149.491 133.363 149.491L102.606 185.441Z" fill="#F9A826"/>
<path d="M85.031 151.672C85.031 170.337 92.8918 185.441 102.606 185.441L85.031 151.672Z" fill="#F9A826"/>
<path d="M102.606 185.441C102.606 160.05 118.507 139.504 138.156 139.504L102.606 185.441Z" fill="#3F3D56"/>
<path d="M96.8081 185.692C96.8081 185.692 100.717 185.572 101.895 184.733C103.073 183.894 107.907 182.892 108.199 184.238C108.492 185.583 114.073 190.929 109.66 190.964C105.248 191 99.407 190.277 98.2314 189.561C97.0557 188.844 96.8081 185.692 96.8081 185.692Z" fill="#A8A8A8"/>
<path opacity="0.2" d="M109.739 190.496C105.326 190.531 99.4858 189.808 98.3101 189.092C97.4147 188.547 97.058 186.59 96.9386 185.687C96.8559 185.69 96.8081 185.692 96.8081 185.692C96.8081 185.692 97.0557 188.844 98.2314 189.561C99.4071 190.277 105.248 191 109.66 190.964C110.934 190.954 111.374 190.501 111.35 189.829C111.173 190.235 110.687 190.488 109.739 190.496Z" fill="black"/>
</svg>
