<svg width="16" height="16" viewBox="0 0 16 16" fill="none" xmlns="http://www.w3.org/2000/svg">
<path d="M6.5 10.9949V14.4999C6.5 14.6325 6.44732 14.7597 6.35355 14.8535C6.25979 14.9472 6.13261 14.9999 6 14.9999H2C1.86739 14.9999 1.74022 14.9472 1.64645 14.8535C1.55268 14.7597 1.5 14.6325 1.5 14.4999V7.49992C1.49988 7.43421 1.51272 7.36913 1.53777 7.30839C1.56282 7.24764 1.5996 7.19244 1.646 7.14592L7.646 1.14592C7.69245 1.09935 7.74762 1.06241 7.80837 1.0372C7.86911 1.012 7.93423 0.999023 8 0.999023C8.06577 0.999023 8.13089 1.012 8.19163 1.0372C8.25238 1.06241 8.30756 1.09935 8.354 1.14592L14.354 7.14592C14.4004 7.19244 14.4372 7.24764 14.4622 7.30839C14.4873 7.36913 14.5001 7.43421 14.5 7.49992V14.4999C14.5 14.6325 14.4473 14.7597 14.3536 14.8535C14.2598 14.9472 14.1326 14.9999 14 14.9999H10C9.86739 14.9999 9.74022 14.9472 9.64645 14.8535C9.55268 14.7597 9.5 14.6325 9.5 14.4999V10.9999C9.5 10.7499 9.25 10.4999 9 10.4999H7C6.75 10.4999 6.5 10.7499 6.5 10.9949Z" fill="black"/>
<path fill-rule="evenodd" clip-rule="evenodd" d="M13 2.5V6L11 4V2.5C11 2.36739 11.0527 2.24021 11.1464 2.14645C11.2402 2.05268 11.3674 2 11.5 2H12.5C12.6326 2 12.7598 2.05268 12.8536 2.14645C12.9473 2.24021 13 2.36739 13 2.5Z" fill="black"/>
</svg>
