<?xml version="1.0"?>
<svg xmlns="http://www.w3.org/2000/svg" xmlns:xlink="http://www.w3.org/1999/xlink" version="1.1" id="Layer_1" x="0px" y="0px" viewBox="0 0 512 512" style="enable-background:new 0 0 512 512;" xml:space="preserve" width="512px" height="512px" class=""><g><circle style="fill:#06B26B" cx="256" cy="256" r="256" data-original="#9EA7DB" class="active-path" data-old_color="#9EA7DB"/><path style="fill:#06B26B" d="M266.046,511.789L133.058,378.801l213.423-245.062l162.374,162.374  C490.125,415.205,389.246,507.024,266.046,511.789z" data-original="#8C95C9" class="" data-old_color="#8C95C9"/><path style="fill:#F8F8F8;" d="M133.058,217.32v161.482c162.021,0,75.859,0,236.848,0V217.32l-120.431-96.302L133.058,217.32z" data-original="#F8F8F8" class=""/><g>
	<polygon style="fill:#F8F8F8" points="133.058,217.32 133.058,236.237 251.47,140.545 369.906,236.261 369.906,217.32    249.475,121.017  " data-original="#EAEAED" class="" data-old_color="#EAEAED"/>
	<polygon style="fill:#F8F8F8" points="317.002,133.739 346.481,133.739 346.481,172.982 317.002,172.982  " data-original="#EAEAED" class="" data-old_color="#EAEAED"/>
</g><path style="fill:#FF8C8A" d="M251.47,246.964h0.023c26.335,0,47.881,21.57,47.881,47.881v83.956h-95.762v-83.956  C203.612,268.51,225.159,246.964,251.47,246.964z" data-original="#FA7876" class="" data-old_color="#FA7876"/><g>
	<path style="fill:#FF8C8A;" d="M273.58,252.409c15.303,8.027,25.795,24.081,25.795,42.436v83.956h-84.238v-77.126   c0-27.508,22.485-49.994,49.994-49.994l0,0C268.017,251.681,270.834,251.939,273.58,252.409z" data-original="#FF8C8A" class=""/>
	<polygon style="fill:#FF8C8A;" points="251.47,93.697 251.141,93.415 98.18,217.038 116.839,232.13 251.47,123.341 386.101,232.13    404.784,217.038 251.799,93.415  " data-original="#FF8C8A" class=""/>
</g></g> </svg>
