<svg width="235" height="210" viewBox="0 0 235 210" fill="none" xmlns="http://www.w3.org/2000/svg">
<g clip-path="url(#clip0)">
<path d="M28.6603 163.583L26.0356 153.238C21.3818 151.267 16.6203 149.559 11.7741 148.124L11.4427 152.932L10.0989 147.635C4.08871 145.92 0 145.165 0 145.165C0 145.165 5.52291 166.153 17.1068 182.199L30.6046 184.569L20.1185 186.08C21.5763 187.832 23.1429 189.491 24.8091 191.047C41.6604 206.679 60.4296 213.851 66.7312 207.066C73.0329 200.282 64.4807 182.11 47.6294 166.478C42.4053 161.632 35.8428 157.743 29.2737 154.682L28.6603 163.583Z" fill="#E6E6E6"/>
<path d="M53.6226 152.348L56.7268 142.136C53.7624 138.045 50.5694 134.124 47.163 130.392L44.3925 134.336L45.9819 129.108C41.724 124.535 38.6147 121.776 38.6147 121.776C38.6147 121.776 32.4866 142.596 34.1035 162.316L44.4326 171.317L34.6746 167.194C35.016 169.447 35.499 171.677 36.1205 173.869C42.4608 195.956 54.8185 211.791 63.7223 209.238C72.6261 206.685 74.7041 186.712 68.3638 164.625C66.3983 157.778 62.7919 151.059 58.7515 145.046L53.6226 152.348Z" fill="#E6E6E6"/>
<path d="M201.397 194.118L203.35 192.01C203.114 190.671 202.802 189.347 202.416 188.043L201.281 188.672L202.281 187.593C201.788 185.985 201.36 184.952 201.36 184.952C201.36 184.952 197.427 189.273 195.498 194.238L196.94 197.632L195.063 195.487C194.88 196.072 194.735 196.669 194.627 197.273C193.564 203.366 194.694 208.652 197.15 209.08C199.606 209.508 202.459 204.916 203.522 198.823C203.815 196.876 203.807 194.897 203.498 192.953L201.397 194.118Z" fill="#E6E6E6"/>
<path d="M230.291 198.287L233.053 197.491C233.543 196.223 233.962 194.928 234.306 193.613L233.009 193.565L234.423 193.158C234.832 191.527 235 190.421 235 190.421C235 190.421 229.398 192.089 225.179 195.343L224.659 198.992L224.161 196.186C223.701 196.593 223.268 197.029 222.864 197.49C218.803 202.157 217.035 207.266 218.916 208.901C220.798 210.536 225.615 208.079 229.677 203.412C230.934 201.897 231.951 200.198 232.692 198.375L230.291 198.287Z" fill="#E6E6E6"/>
<path d="M153.074 14.2479V194.86C153.073 198.638 151.571 202.262 148.897 204.934C146.224 207.606 142.598 209.107 138.817 209.108H68.5845C64.8027 209.108 61.1755 207.607 58.5007 204.936C55.826 202.264 54.3227 198.639 54.3217 194.86V14.2479C54.3228 10.4684 55.826 6.84415 58.5007 4.17222C61.1755 1.50029 64.8027 -0.000476533 68.5845 1.13503e-07H77.1042C76.6859 1.02812 76.5267 2.1432 76.6406 3.24722C76.7544 4.35124 77.138 5.41039 77.7574 6.3316C78.3768 7.2528 79.2132 8.00785 80.193 8.53037C81.1728 9.05289 82.266 9.32688 83.3766 9.32828H123.418C124.529 9.3269 125.622 9.05291 126.602 8.53039C127.582 8.00787 128.418 7.25283 129.038 6.33162C129.657 5.41041 130.041 4.35125 130.154 3.24723C130.268 2.1432 130.109 1.02813 129.691 4.61544e-06H138.817C142.598 0.00076883 146.224 1.50212 148.897 4.17395C151.571 6.84578 153.073 10.4693 153.074 14.2479Z" fill="#3F3D56"/>
<path d="M93.8017 74.8043C93.8014 73.567 94.1272 72.3514 94.7463 71.2799C95.3654 70.2084 96.256 69.3188 97.3285 68.7005C96.2562 68.0815 95.0398 67.7554 93.8015 67.7551C92.5631 67.7549 91.3465 68.0804 90.274 68.699C89.2015 69.3177 88.3108 70.2076 87.6916 71.2793C87.0723 72.351 86.7463 73.5667 86.7463 74.8043C86.7463 76.0418 87.0723 77.2576 87.6916 78.3293C88.3108 79.401 89.2015 80.2909 90.274 80.9095C91.3465 81.5281 92.5631 81.8537 93.8015 81.8534C95.0398 81.8531 96.2562 81.5271 97.3285 80.908C96.256 80.2897 95.3654 79.4001 94.7463 78.3286C94.1272 77.2571 93.8014 76.0416 93.8017 74.8043Z" fill="white"/>
<path d="M102.669 74.8043C102.669 73.567 102.995 72.3514 103.614 71.2799C104.233 70.2084 105.123 69.3188 106.196 68.7005C105.124 68.0815 103.907 67.7554 102.669 67.7551C101.43 67.7549 100.214 68.0804 99.1413 68.699C98.0688 69.3177 97.1782 70.2076 96.5589 71.2793C95.9397 72.351 95.6136 73.5667 95.6136 74.8043C95.6136 76.0418 95.9397 77.2576 96.5589 78.3293C97.1782 79.401 98.0688 80.2909 99.1413 80.9095C100.214 81.5281 101.43 81.8537 102.669 81.8534C103.907 81.8531 105.124 81.5271 106.196 80.908C105.123 80.2897 104.233 79.4001 103.614 78.3286C102.995 77.2571 102.669 76.0416 102.669 74.8043Z" fill="white"/>
<path d="M111.335 81.8534C115.23 81.8534 118.388 78.6974 118.388 74.8043C118.388 70.9112 115.23 67.7552 111.335 67.7552C107.439 67.7552 104.281 70.9112 104.281 74.8043C104.281 78.6974 107.439 81.8534 111.335 81.8534Z" fill="#77736B"/>
<path d="M135.255 120.938H72.2047V121.528H135.255V120.938Z" fill="white"/>
<path d="M74.1959 117.253C75.2955 117.253 76.1869 116.362 76.1869 115.263C76.1869 114.164 75.2955 113.273 74.1959 113.273C73.0963 113.273 72.2048 114.164 72.2048 115.263C72.2048 116.362 73.0963 117.253 74.1959 117.253Z" fill="#77736B"/>
<path d="M135.255 140.835H72.2047V141.425H135.255V140.835Z" fill="white"/>
<path d="M74.1959 137.151C75.2955 137.151 76.1869 136.26 76.1869 135.161C76.1869 134.062 75.2955 133.171 74.1959 133.171C73.0963 133.171 72.2048 134.062 72.2048 135.161C72.2048 136.26 73.0963 137.151 74.1959 137.151Z" fill="#77736B"/>
<path d="M123.123 96.8212H82.0135C81.6221 96.8207 81.2469 96.6651 80.9702 96.3886C80.6935 96.112 80.5378 95.7371 80.5374 95.346V54.2627C80.5378 53.8716 80.6935 53.4966 80.9702 53.2201C81.2469 52.9435 81.6221 52.788 82.0135 52.7875H123.123C123.514 52.788 123.889 52.9435 124.166 53.2201C124.443 53.4966 124.599 53.8716 124.599 54.2627V95.346C124.599 95.7371 124.443 96.112 124.166 96.3886C123.889 96.6651 123.514 96.8207 123.123 96.8212ZM82.0135 53.3776C81.7787 53.3778 81.5535 53.4712 81.3875 53.6371C81.2215 53.803 81.1281 54.028 81.1278 54.2627V95.346C81.1281 95.5806 81.2215 95.8056 81.3875 95.9716C81.5535 96.1375 81.7787 96.2308 82.0135 96.2311H123.123C123.358 96.2308 123.583 96.1375 123.749 95.9716C123.915 95.8056 124.008 95.5806 124.009 95.346V54.2627C124.008 54.028 123.915 53.803 123.749 53.6371C123.583 53.4712 123.358 53.3778 123.123 53.3776H82.0135Z" fill="white"/>
<path d="M134.074 154.064H114.202C113.55 154.064 113.021 154.592 113.021 155.244V162.169C113.021 162.821 113.55 163.35 114.202 163.35H134.074C134.726 163.35 135.255 162.821 135.255 162.169V155.244C135.255 154.592 134.726 154.064 134.074 154.064Z" fill="#77736B"/>
<path d="M235 208.819H0.234619V209.409H235V208.819Z" fill="#3F3D56"/>
<path d="M190.279 95.9116C190.279 95.9116 189.462 101.085 190.279 101.901C191.097 102.718 185.103 109.525 185.103 109.525L180.199 102.718C180.199 102.718 182.379 99.1787 181.562 96.1839L190.279 95.9116Z" fill="#FFB8B8"/>
<path d="M172.3 134.844L168.757 172.688L170.118 202.092L176.656 200.186L176.93 173.777L184.559 150.908L189.189 175.683L188.643 200.731L196.817 201.004L197.362 173.233L198.32 134.448L172.3 134.844Z" fill="#2F2E41"/>
<path d="M188.917 199.914V205.904C188.917 205.904 187.555 210.26 191.914 209.988C196.273 209.715 196.001 207.81 196.001 207.81L194.366 200.459L188.917 199.914Z" fill="#2F2E41"/>
<path d="M176.385 199.914V205.904C176.385 205.904 177.748 210.26 173.389 209.988C169.03 209.716 169.302 207.81 169.302 207.81L170.937 200.459L176.385 199.914Z" fill="#2F2E41"/>
<path d="M185.648 98.9065C189.109 98.9065 191.914 96.1029 191.914 92.6445C191.914 89.1861 189.109 86.3826 185.648 86.3826C182.188 86.3826 179.382 89.1861 179.382 92.6445C179.382 96.1029 182.188 98.9065 185.648 98.9065Z" fill="#FFB8B8"/>
<path d="M185.376 106.53L185.921 103.807H187.283L189.917 100.02L192.186 102.174L192.731 114.97H178.02L179.382 101.357L181.366 100.02C181.366 100.02 181.017 104.624 184.831 104.624L185.376 106.53Z" fill="#575A89"/>
<path d="M179.655 103.535C179.655 103.535 181.911 106.389 185.278 106.187C188.645 105.985 191.914 103.263 191.914 103.263L196.545 138.656C196.545 138.656 191.369 139.201 189.735 136.478L177.203 136.206L177.475 103.263L179.655 103.535Z" fill="#D0CDE1"/>
<path d="M181.494 99.5509L169.575 105.441L172.571 122.321C172.571 122.321 173.661 128.583 172.571 131.033C171.482 133.483 170.392 149.819 170.392 149.819C170.392 149.819 182.651 151.18 181.017 131.85C179.382 112.519 181.494 99.5509 181.494 99.5509Z" fill="#2F2E41"/>
<path d="M174.206 140.29L175.841 141.923C175.841 141.923 180.744 150.363 182.924 147.368C185.103 144.374 179.11 139.201 179.11 139.201L176.385 137.023L174.206 140.29Z" fill="#FFB8B8"/>
<path d="M189.923 99.5509L201.721 105.441L197.635 125.588C197.635 125.588 197.907 132.122 199.27 135.661C200.632 139.201 200.087 149.546 200.087 149.546C200.087 149.546 198.452 155.808 194.911 140.29C191.369 124.771 189.923 99.5509 189.923 99.5509Z" fill="#2F2E41"/>
<path d="M198.997 130.488H196.545C196.545 130.488 188.372 129.399 188.917 132.666C189.462 135.934 197.09 135.117 197.09 135.117L200.087 134.845L198.997 130.488Z" fill="#FFB8B8"/>
<path d="M171.209 104.624L169.302 105.441C169.302 105.441 167.395 109.525 167.123 110.886C166.85 112.247 163.581 128.583 164.398 130.488C165.216 132.394 173.389 142.468 173.389 142.468L178.02 137.567L171.209 128.31L173.116 116.603L171.209 104.624Z" fill="#2F2E41"/>
<path d="M197.635 104.896L201.24 105.2L201.994 105.441C201.994 105.441 209.622 126.132 207.987 129.399C206.353 132.666 199.27 138.656 199.27 138.656L197.363 130.216L200.904 126.949L197.363 116.059L197.635 104.896Z" fill="#2F2E41"/>
<path d="M190.949 87.816C190.949 87.816 192.589 84.742 188.982 84.4625C188.982 84.4625 185.704 82.5063 183.081 84.742C183.081 84.742 180.786 84.1831 180.13 85.8598C180.13 85.8598 179.802 85.0215 180.786 84.4625C180.786 84.4625 178.491 83.9036 178.491 86.6982C178.491 86.6982 177.508 89.4928 178.491 92.0079C179.475 94.5231 179.802 94.8025 179.802 94.8025C179.802 94.8025 178.186 89.5293 182.12 89.2499C186.055 88.9704 190.458 86.5585 190.785 89.6325C191.113 92.7066 191.769 93.545 191.769 93.545C191.769 93.545 194.72 89.0736 190.949 87.816Z" fill="#2F2E41"/>
</g>
<defs>
<clipPath id="clip0">
<rect width="235" height="210" fill="white"/>
</clipPath>
</defs>
</svg>
