<svg width="24" height="24" viewBox="0 0 24 24" fill="none" xmlns="http://www.w3.org/2000/svg">
<path d="M4.983 7.1968C6.1914 7.1968 7.171 6.2172 7.171 5.0088C7.171 3.8004 6.1914 2.8208 4.983 2.8208C3.7746 2.8208 2.795 3.8004 2.795 5.0088C2.795 6.2172 3.7746 7.1968 4.983 7.1968Z" fill="black"/>
<path d="M9.237 8.85518V20.9942H13.006V14.9912C13.006 13.4072 13.304 11.8732 15.268 11.8732C17.205 11.8732 17.229 13.6842 17.229 15.0912V20.9952H21V14.3382C21 11.0682 20.296 8.55518 16.474 8.55518C14.639 8.55518 13.409 9.56218 12.906 10.5152H12.855V8.85518H9.237V8.85518ZM3.095 8.85518H6.87V20.9942H3.095V8.85518Z" fill="black"/>
</svg>
