<svg width="512" height="512" viewBox="0 0 512 512" fill="none" xmlns="http://www.w3.org/2000/svg">
<g clip-path="url(#clip0)">
<path d="M432 320H400C395.757 320 391.687 321.686 388.686 324.686C385.686 327.687 384 331.757 384 336V448H64V128H208C212.243 128 216.313 126.314 219.314 123.314C222.314 120.313 224 116.243 224 112V80C224 75.7565 222.314 71.6869 219.314 68.6863C216.313 65.6857 212.243 64 208 64H48C35.2696 64 23.0606 69.0571 14.0589 78.0589C5.05713 87.0606 0 99.2696 0 112L0 464C0 476.73 5.05713 488.939 14.0589 497.941C23.0606 506.943 35.2696 512 48 512H400C412.73 512 424.939 506.943 433.941 497.941C442.943 488.939 448 476.73 448 464V336C448 331.757 446.314 327.687 443.314 324.686C440.313 321.686 436.243 320 432 320ZM488 0H360C338.63 0 327.95 25.91 343 41L378.73 76.73L135 320.37C132.763 322.6 130.987 325.249 129.776 328.166C128.565 331.084 127.941 334.211 127.941 337.37C127.941 340.529 128.565 343.656 129.776 346.574C130.987 349.491 132.763 352.14 135 354.37L157.67 377C159.9 379.237 162.549 381.013 165.466 382.224C168.384 383.435 171.511 384.059 174.67 384.059C177.829 384.059 180.956 383.435 183.874 382.224C186.791 381.013 189.44 379.237 191.67 377L435.28 133.32L471 169C486 184 512 173.5 512 152V24C512 17.6348 509.471 11.5303 504.971 7.02944C500.47 2.52856 494.365 0 488 0V0Z" fill="black"/>
</g>
<defs>
<clipPath id="clip0">
<rect width="512" height="512" fill="white"/>
</clipPath>
</defs>
</svg>
