<svg width="256" height="184" viewBox="0 0 256 184" fill="none" xmlns="http://www.w3.org/2000/svg">
<g clip-path="url(#clip0)">
<path d="M0 183.876H41.1783" stroke="#3F3D56" stroke-miterlimit="10"/>
<path d="M238.289 31.6905H65.0909C62.4334 31.6905 60.2791 33.8448 60.2791 36.5023V150.661C60.2791 153.319 62.4334 155.473 65.0909 155.473H238.289C240.946 155.473 243.101 153.319 243.101 150.661V36.5023C243.101 33.8448 240.946 31.6905 238.289 31.6905Z" fill="#F2F2F2"/>
<path d="M232.708 23.8766H59.5096C56.8521 23.8766 54.6978 26.0309 54.6978 28.6884V142.847C54.6978 145.505 56.8521 147.659 59.5096 147.659H232.708C235.365 147.659 237.519 145.505 237.519 142.847V28.6884C237.519 26.0309 235.365 23.8766 232.708 23.8766Z" stroke="#3F3D56" stroke-miterlimit="10"/>
<path d="M54.6978 35.7439H237.519" stroke="#3F3D56" stroke-miterlimit="10"/>
<path opacity="0.3" d="M212.07 63.5663H165.728C164.757 63.5663 163.969 64.354 163.969 65.3257V69.4969C163.969 70.4685 164.757 71.2562 165.728 71.2562H212.07C213.042 71.2562 213.829 70.4685 213.829 69.4969V65.3257C213.829 64.354 213.042 63.5663 212.07 63.5663Z" fill="#3F3D56"/>
<path opacity="0.3" d="M221.62 84.8996H156.178C155.206 84.8996 154.418 85.6873 154.418 86.659V89.3417C154.418 90.3134 155.206 91.1011 156.178 91.1011H221.62C222.592 91.1011 223.38 90.3134 223.38 89.3417V86.659C223.38 85.6873 222.592 84.8996 221.62 84.8996Z" fill="#3F3D56"/>
<path opacity="0.3" d="M221.62 101.768H156.178C155.206 101.768 154.418 102.555 154.418 103.527V106.21C154.418 107.182 155.206 107.969 156.178 107.969H221.62C222.592 107.969 223.38 107.182 223.38 106.21V103.527C223.38 102.555 222.592 101.768 221.62 101.768Z" fill="#3F3D56"/>
<path opacity="0.3" d="M221.62 118.636H156.178C155.206 118.636 154.418 119.424 154.418 120.395V123.078C154.418 124.05 155.206 124.837 156.178 124.837H221.62C222.592 124.837 223.38 124.05 223.38 123.078V120.395C223.38 119.424 222.592 118.636 221.62 118.636Z" fill="#3F3D56"/>
<path d="M214.551 61.0857H168.209C167.237 61.0857 166.45 61.8734 166.45 62.8451V67.0163C166.45 67.9879 167.237 68.7756 168.209 68.7756H214.551C215.522 68.7756 216.31 67.9879 216.31 67.0163V62.8451C216.31 61.8734 215.522 61.0857 214.551 61.0857Z" stroke="#3F3D56" stroke-miterlimit="10"/>
<path d="M224.101 82.419H158.659C157.687 82.419 156.899 83.2067 156.899 84.1784V86.8611C156.899 87.8328 157.687 88.6205 158.659 88.6205H224.101C225.073 88.6205 225.861 87.8328 225.861 86.8611V84.1784C225.861 83.2067 225.073 82.419 224.101 82.419Z" stroke="#3F3D56" stroke-miterlimit="10"/>
<path d="M224.101 99.2871H158.659C157.687 99.2871 156.899 100.075 156.899 101.047V103.729C156.899 104.701 157.687 105.489 158.659 105.489H224.101C225.073 105.489 225.861 104.701 225.861 103.729V101.047C225.861 100.075 225.073 99.2871 224.101 99.2871Z" stroke="#3F3D56" stroke-miterlimit="10"/>
<path d="M224.101 116.155H158.659C157.687 116.155 156.899 116.943 156.899 117.915V120.597C156.899 121.569 157.687 122.357 158.659 122.357H224.101C225.073 122.357 225.861 121.569 225.861 120.597V117.915C225.861 116.943 225.073 116.155 224.101 116.155Z" stroke="#3F3D56" stroke-miterlimit="10"/>
<path opacity="0.3" d="M68.5891 35.0393C70.6441 35.0393 72.31 33.3734 72.31 31.3184C72.31 29.2634 70.6441 27.5975 68.5891 27.5975C66.5341 27.5975 64.8682 29.2634 64.8682 31.3184C64.8682 33.3734 66.5341 35.0393 68.5891 35.0393Z" fill="#3F3D56"/>
<path opacity="0.3" d="M79.0076 35.0393C81.0626 35.0393 82.7285 33.3734 82.7285 31.3184C82.7285 29.2634 81.0626 27.5975 79.0076 27.5975C76.9525 27.5975 75.2866 29.2634 75.2866 31.3184C75.2866 33.3734 76.9525 35.0393 79.0076 35.0393Z" fill="#3F3D56"/>
<path opacity="0.3" d="M89.4265 35.0393C91.4815 35.0393 93.1474 33.3734 93.1474 31.3184C93.1474 29.2634 91.4815 27.5975 89.4265 27.5975C87.3715 27.5975 85.7056 29.2634 85.7056 31.3184C85.7056 33.3734 87.3715 35.0393 89.4265 35.0393Z" fill="#3F3D56"/>
<path d="M70.0774 33.5509C72.1324 33.5509 73.7983 31.885 73.7983 29.83C73.7983 27.775 72.1324 26.1091 70.0774 26.1091C68.0224 26.1091 66.3564 27.775 66.3564 29.83C66.3564 31.885 68.0224 33.5509 70.0774 33.5509Z" stroke="#3F3D56" stroke-miterlimit="10"/>
<path d="M80.4961 33.5509C82.5511 33.5509 84.217 31.885 84.217 29.83C84.217 27.775 82.5511 26.1091 80.4961 26.1091C78.4411 26.1091 76.7751 27.775 76.7751 29.83C76.7751 31.885 78.4411 33.5509 80.4961 33.5509Z" stroke="#3F3D56" stroke-miterlimit="10"/>
<path d="M90.9148 33.5509C92.9698 33.5509 94.6357 31.885 94.6357 29.83C94.6357 27.775 92.9698 26.1091 90.9148 26.1091C88.8598 26.1091 87.1938 27.775 87.1938 29.83C87.1938 31.885 88.8598 33.5509 90.9148 33.5509Z" stroke="#3F3D56" stroke-miterlimit="10"/>
<path d="M112.46 142.45C111.837 139.58 111.672 135.66 111.881 132.934C111.881 132.934 108.731 119.096 106.253 117.804L106.252 117.805C106.214 117.854 105.011 119.431 104.859 124.31C104.704 129.267 102.949 132.52 102.949 132.52C102.949 132.52 103.517 138.699 103.192 142.45L112.46 142.45Z" fill="#3F3D56"/>
<path d="M135.374 54.3881H78.2069C77.4325 54.3881 76.6657 54.5406 75.9503 54.8369C75.2348 55.1333 74.5848 55.5676 74.0372 56.1152C73.4896 56.6628 73.0553 57.3129 72.7589 58.0283C72.4626 58.7437 72.3101 59.5105 72.3101 60.2849V136.553C72.3101 137.327 72.4626 138.094 72.7589 138.81C73.0553 139.525 73.4896 140.175 74.0372 140.723C74.5848 141.27 75.2348 141.705 75.9503 142.001C76.6657 142.297 77.4325 142.45 78.2069 142.45H98.264C97.5942 139.672 96.7615 135.333 97.6048 132.316L97.6044 132.314L97.6049 132.315C97.6443 132.174 97.6861 132.036 97.733 131.901C98.3122 129.943 98.5053 127.891 98.3015 125.86C98.6739 124.124 98.6739 122.329 98.3015 120.593C97.6819 117.701 97.2481 114.861 97.2481 114.861C97.2481 114.861 96.9065 111.041 97.2047 108.698C97.2113 108.647 97.219 108.598 97.2262 108.548C97.121 108.524 97.0619 108.51 97.0619 108.51C97.0619 108.51 97.9398 104.535 98.2496 102.004C98.3227 101.407 98.419 100.65 98.5232 99.8426C98.2372 99.7951 97.9557 99.7237 97.6816 99.6292C94.8933 98.6481 94.0155 89.7669 94.0155 89.7669V86.9528C94.0155 86.9528 93.0861 82.6412 96.3391 80.7308C99.4716 78.891 100.722 78.3875 100.811 78.3527C100.835 78.3357 100.858 78.3202 100.882 78.3013C101.236 78.0235 101.516 77.6628 101.698 77.2511C101.703 77.1802 101.704 77.1097 101.701 77.0397C101.648 76.0309 100.946 75.1135 100.28 74.313C99.7115 73.6302 99.1431 72.9474 98.5748 72.2647C98.38 72.0613 98.2304 71.8191 98.1356 71.554C98.0997 71.4077 98.0841 71.2571 98.0892 71.1065C98.0888 71.0508 98.0891 70.9952 98.0902 70.9396C98.0995 70.4305 98.1133 69.9215 98.1317 69.4127C98.1477 68.9681 98.2596 68.4071 98.695 68.3158C98.9214 68.2682 99.2212 68.3511 99.3409 68.1531C99.381 68.0715 99.3913 67.9784 99.3698 67.89C99.3684 67.8966 99.368 67.9035 99.3661 67.91C99.3647 67.9017 99.3632 67.8934 99.3617 67.8852C99.2721 67.5287 99.2181 67.1643 99.2003 66.7971C99.1955 66.6315 99.2192 66.4662 99.2703 66.3085C99.5225 65.5705 100.391 65.2676 101.158 65.1284C101.926 64.9892 102.787 64.8694 103.269 64.2559C103.398 64.0523 103.538 63.8557 103.688 63.6671C103.909 63.4662 104.18 63.3293 104.473 63.271C105.426 63.0299 106.432 63.1192 107.327 63.5243C107.699 63.6937 108.072 63.9218 108.479 63.896C108.902 63.8692 109.263 63.5715 109.681 63.4991C110.355 63.3821 111 63.8875 111.332 64.4859C111.544 64.8666 111.649 65.2968 111.638 65.732C111.646 66.1652 111.49 66.5854 111.201 66.9081C110.91 67.216 110.477 67.4276 110.357 67.8332C110.308 67.9984 110.319 68.1762 110.276 68.3429C110.27 68.3637 110.261 68.3832 110.254 68.4033C110.262 68.4137 110.271 68.4235 110.279 68.4338C110.787 69.103 111.127 69.8838 111.271 70.7112C111.416 71.5386 111.36 72.3886 111.11 73.1902C110.859 73.9918 110.42 74.7218 109.829 75.3193C109.239 75.9167 108.514 76.3643 107.716 76.6246C107.714 76.6769 107.712 76.7292 107.712 76.7817C107.697 77.1072 107.752 77.4321 107.874 77.7345C107.995 78.0368 108.18 78.3095 108.416 78.5342L113.017 80.4209C113.017 80.4209 115.787 80.0852 116.787 84.2186C116.947 84.9057 117.004 85.6126 116.958 86.3166C116.921 86.9398 117.006 88.0371 117.716 89.457C118.852 91.729 118.594 96.9441 116.27 97.4605C114.069 97.9495 113.213 97.7441 113.129 97.721L113.124 97.8123C113.16 98.7909 113.508 107.231 114.773 108.252C115.123 108.535 115.056 108.725 114.769 108.854L114.77 108.855C114.77 108.855 114.772 108.909 114.777 109.007C114.815 109.624 115.01 111.975 115.857 113.312C116.838 114.861 116.735 123.795 116.735 123.795L117.406 129.061C117.406 129.061 116.993 132.314 117.406 132.882C117.641 133.204 117.925 138.192 118.127 142.45H135.374C136.938 142.45 138.438 141.828 139.544 140.723C140.65 139.617 141.271 138.117 141.271 136.553V60.2849C141.271 59.5105 141.119 58.7437 140.822 58.0283C140.526 57.3129 140.092 56.6628 139.544 56.1152C138.997 55.5676 138.347 55.1333 137.631 54.8369C136.916 54.5406 136.149 54.3881 135.374 54.3881Z" fill="#3F3D56"/>
<path d="M129.421 47.6904H72.2533C68.9965 47.6904 66.3564 50.3305 66.3564 53.5873V129.855C66.3564 133.112 68.9965 135.752 72.2533 135.752H129.421C132.678 135.752 135.318 133.112 135.318 129.855V53.5873C135.318 50.3305 132.678 47.6904 129.421 47.6904Z" stroke="#3F3D56" stroke-miterlimit="10"/>
<path d="M25.0106 79.784C25.0106 79.784 22.6976 79.1001 22.2015 79.8443C21.7054 80.5885 22.8779 85.9832 22.8779 85.9832L27.9745 86.293L26.1959 81.8015L25.0106 79.784Z" fill="#2F2E41"/>
<path d="M7.18 124.085C7.18 124.085 11.8174 134.266 8.24608 133.946C4.67472 133.627 3.28882 124.085 3.28882 124.085H7.18Z" fill="#A0616A"/>
<path d="M37.5096 123.025C37.5096 123.025 35.4752 134.026 38.8628 132.851C42.2505 131.676 41.285 122.082 41.285 122.082L37.5096 123.025Z" fill="#A0616A"/>
<path d="M24.0238 77.2313C24.0238 77.2313 23.9705 82.3485 25.9427 82.615C27.915 82.8815 24.8234 85.6 24.8234 85.6L21.3053 86.293L16.2414 85.9198L14.0027 83.0414C14.0027 83.0414 17.9472 81.1758 16.2414 75.3657L24.0238 77.2313Z" fill="#A0616A"/>
<path opacity="0.1" d="M24.0238 77.2313C24.0238 77.2313 23.9705 82.3485 25.9427 82.615C27.915 82.8815 24.8234 85.6 24.8234 85.6L21.3053 86.293L16.2414 85.9198L14.0027 83.0414C14.0027 83.0414 17.9472 81.1758 16.2414 75.3657L24.0238 77.2313Z" fill="black"/>
<path d="M33.0856 120.514C33.0856 120.514 35.5908 125.898 33.6186 142.795C33.6186 142.795 34.2049 148.765 33.7252 149.884C33.2455 151.004 29.301 166.195 29.301 166.195C29.301 166.195 24.2371 167.315 23.5442 163.956C23.5442 163.956 24.2371 159.159 24.1838 158.413C24.1305 157.667 25.3032 149.511 25.3032 149.511L22.9045 133.733L21.0922 147.965C21.0922 147.965 21.0922 152.07 20.5058 152.976C19.9195 153.882 20.5058 172.112 20.5058 172.112C20.5058 172.112 22.1583 174.884 19.653 174.937C17.1477 174.99 14.9089 174.884 14.6957 173.125C14.4825 171.366 14.3759 169.607 13.8428 168.541C13.3098 167.474 12.6169 155.268 12.7768 151.004C12.9367 146.739 9.25871 124.832 10.4314 122.539C11.6041 120.247 33.0856 120.514 33.0856 120.514Z" fill="#2F2E41"/>
<path d="M21.3054 79.1503C24.8381 79.1503 27.7019 76.2865 27.7019 72.7539C27.7019 69.2212 24.8381 66.3574 21.3054 66.3574C17.7727 66.3574 14.9089 69.2212 14.9089 72.7539C14.9089 76.2865 17.7727 79.1503 21.3054 79.1503Z" fill="#A0616A"/>
<path d="M14.9091 83.1481C14.9091 83.1481 18.8003 86.0264 24.4505 83.7344C24.4505 83.7344 26.3161 82.8282 26.1562 81.4423C25.9963 80.0564 30.0474 92.5828 30.0474 92.5828L34.1518 114.384L33.9386 123.286C33.9386 123.286 32.1262 122.38 26.476 124.405C20.8258 126.431 11.6042 122.113 11.6042 122.113L11.9241 99.2458L12.2439 85.9198L13.0968 82.9881C13.0968 82.9881 13.5232 82.1886 14.9091 83.1481Z" fill="#F2F2F2"/>
<path d="M24.2017 79.5698C24.2017 79.5698 25.1433 79.4168 26.0494 80.856C26.9556 82.2952 29.0878 83.2014 29.0878 83.2014C29.0878 83.2014 34.2582 83.5212 35.0045 86.293C35.7508 89.0648 37.6164 92.8493 38.5226 99.8321C39.4287 106.815 41.241 117.955 41.5076 118.862C41.7741 119.768 41.1344 122.54 41.8807 123.392C42.6269 124.245 36.6036 124.245 36.6036 124.245C36.6036 124.245 36.0706 119.874 35.6974 119.874C35.3243 119.874 35.4309 122.806 35.804 124.938C36.1772 127.07 33.0856 124.938 33.0856 124.938C33.0856 124.938 30.6869 115.184 28.3948 106.388C26.1027 97.5934 24.7702 92.7427 25.1966 90.7705C25.623 88.7983 26.7957 83.1481 25.9428 82.615C25.09 82.082 24.2017 79.5698 24.2017 79.5698Z" fill="#2F2E41"/>
<path d="M16.515 79.5651C16.515 79.5651 15.1223 80.323 11.6043 82.8282C8.08621 85.3335 5.68755 87.2524 5.68755 87.2524C5.68755 87.2524 4.30165 88.3185 3.44879 94.6617C2.59593 101.005 0.676981 117.422 1.42324 119.501C2.1695 121.58 2.43601 122.806 2.16949 124.032C1.90297 125.258 7.7664 125.205 7.87301 124.938C7.97961 124.672 7.7131 119.821 7.97962 119.714C8.24614 119.608 9.68534 122.593 9.95186 125.098C10.2184 127.603 13.31 129.576 14.003 129.576C14.6959 129.576 18.2673 115.13 18.3206 105.269C18.3739 95.4079 17.1479 87.0925 16.2417 85.9199C15.3356 84.7472 16.515 79.5651 16.515 79.5651Z" fill="#2F2E41"/>
<path d="M25.8896 166.675C25.8896 166.675 26.316 165.502 27.8085 165.875C29.3011 166.248 30.3138 164.916 30.3138 164.916C30.3138 164.916 31.1134 164.809 30.5803 165.822C30.0473 166.835 29.6209 167.528 29.6209 167.528C29.6209 167.528 32.8191 174.83 30.7403 176.589C28.6614 178.348 26.2627 177.282 26.2627 177.282C26.2627 177.282 23.9174 175.63 24.024 171.259C24.024 171.259 23.9174 169.873 22.6381 167.634C21.3588 165.396 20.3993 161.984 21.9451 161.345C23.4909 160.705 23.8888 160.681 23.8888 160.681C23.8888 160.681 23.1655 163.99 25.0339 165.146L25.8896 166.675Z" fill="#3F3D56"/>
<path d="M15.9752 174.937C15.9752 174.937 14.6959 172.538 16.8281 172.272C18.9602 172.005 21.2523 171.845 21.1457 172.965C21.0391 174.084 20.7726 175.79 20.7726 175.79L21.1457 177.016C21.1457 177.016 21.2523 180.054 21.6254 180.427C21.9986 180.8 24.0241 183.999 19.7065 183.999C15.3889 183.999 14.1096 183.519 14.4827 182.506C14.8558 181.493 14.9624 176.483 14.9624 176.483L15.9752 174.937Z" fill="#3F3D56"/>
<path d="M19.2798 67.6367C19.2798 67.6367 22.2648 68.4363 23.8106 68.7561C25.3565 69.0759 25.1965 68.1697 25.1965 68.1697C25.1965 68.1697 27.2221 68.4363 27.1155 68.223C27.0089 68.0098 27.9683 66.8905 26.849 65.6112C25.7296 64.3319 26.0494 63.3724 26.0494 63.3724H25.0899L24.8234 62.9993H23.3309C23.3309 62.9993 22.2115 62.5729 19.2798 62.9993C16.3481 63.4257 12.3503 63.5323 12.0305 65.2914C11.7107 67.0504 10.0582 69.2358 10.6446 70.2486C11.2309 71.2614 14.5891 75.419 14.9089 77.1781C15.2287 78.9371 16.7221 79.3279 16.6683 78.2263C16.6146 77.1248 15.1221 73.2869 16.4014 73.127C17.6807 72.9671 19.8662 69.7155 19.2798 67.6367Z" fill="#2F2E41"/>
<path d="M231.908 1.84988C230.851 1.90961 229.831 2.26271 228.963 2.86959C228.095 3.47647 227.413 4.31314 226.994 5.28578C225.766 8.25602 227.348 11.745 229.723 13.9109C232.098 16.0769 235.149 17.3149 237.921 18.9422C241.644 21.1279 244.99 24.1621 246.853 28.0569C248.716 31.9517 248.914 36.7763 246.724 40.4972C244.691 43.9508 240.996 46.0177 237.471 47.924" stroke="#3F3D56" stroke-miterlimit="10"/>
<path d="M235.039 4.21704C237.436 4.21704 239.38 3.27302 239.38 2.10852C239.38 0.944016 237.436 0 235.039 0C232.641 0 230.698 0.944016 230.698 2.10852C230.698 3.27302 232.641 4.21704 235.039 4.21704Z" fill="#3F3D56"/>
<path d="M238.511 18.1085C240.909 18.1085 242.853 17.1644 242.853 15.9999C242.853 14.8354 240.909 13.8914 238.511 13.8914C236.114 13.8914 234.17 14.8354 234.17 15.9999C234.17 17.1644 236.114 18.1085 238.511 18.1085Z" fill="#3F3D56"/>
<path d="M230.574 20.341C232.971 20.341 234.915 19.397 234.915 18.2325C234.915 17.068 232.971 16.124 230.574 16.124C228.176 16.124 226.232 17.068 226.232 18.2325C226.232 19.397 228.176 20.341 230.574 20.341Z" fill="#3F3D56"/>
<path d="M242.977 31.9999C245.374 31.9999 247.318 31.0559 247.318 29.8914C247.318 28.7269 245.374 27.7828 242.977 27.7828C240.579 27.7828 238.636 28.7269 238.636 29.8914C238.636 31.0559 240.579 31.9999 242.977 31.9999Z" fill="#3F3D56"/>
<path d="M251.659 31.9999C254.056 31.9999 256 31.0559 256 29.8914C256 28.7269 254.056 27.7828 251.659 27.7828C249.261 27.7828 247.318 28.7269 247.318 29.8914C247.318 31.0559 249.261 31.9999 251.659 31.9999Z" fill="#3F3D56"/>
</g>
<defs>
<clipPath id="clip0">
<rect width="256" height="184" fill="white"/>
</clipPath>
</defs>
</svg>
