<svg width="289" height="222" viewBox="0 0 289 222" fill="none" xmlns="http://www.w3.org/2000/svg">
<path d="M66.5448 153.637L88.9202 118.459L38.8098 86.603L12.9315 127.288L54.3791 153.637H66.5448Z" fill="#F0F0F0"/>
<path d="M98.2528 164.611H42.8281V153.457H98.2528V164.611ZM43.5479 163.891H97.533V154.177H43.5479V163.891Z" fill="#3F3D56"/>
<path d="M91.4147 162.632C93.4024 162.632 95.0137 161.021 95.0137 159.034C95.0137 157.047 93.4024 155.436 91.4147 155.436C89.427 155.436 87.8157 157.047 87.8157 159.034C87.8157 161.021 89.427 162.632 91.4147 162.632Z" fill="#77736B"/>
<path d="M81.3375 162.632C83.3252 162.632 84.9365 161.021 84.9365 159.034C84.9365 157.047 83.3252 155.436 81.3375 155.436C79.3499 155.436 77.7385 157.047 77.7385 159.034C77.7385 161.021 79.3499 162.632 81.3375 162.632Z" fill="#77736B"/>
<path d="M71.2603 162.632C73.2479 162.632 74.8593 161.021 74.8593 159.034C74.8593 157.047 73.2479 155.436 71.2603 155.436C69.2726 155.436 67.6613 157.047 67.6613 159.034C67.6613 161.021 69.2726 162.632 71.2603 162.632Z" fill="#77736B"/>
<path d="M61.1831 162.632C63.1708 162.632 64.7821 161.021 64.7821 159.034C64.7821 157.047 63.1708 155.436 61.1831 155.436C59.1954 155.436 57.5841 157.047 57.5841 159.034C57.5841 161.021 59.1954 162.632 61.1831 162.632Z" fill="#77736B"/>
<path d="M51.1058 162.632C53.0935 162.632 54.7048 161.021 54.7048 159.034C54.7048 157.047 53.0935 155.436 51.1058 155.436C49.1182 155.436 47.5068 157.047 47.5068 159.034C47.5068 161.021 49.1182 162.632 51.1058 162.632Z" fill="#77736B"/>
<path d="M164.115 40.658V13.3128H177.791V0H110.849V66.9238H168.074V60.3806C168.074 59.1608 168.314 57.953 168.781 56.8261C169.248 55.6992 169.932 54.6753 170.795 53.8128C171.657 52.9503 172.682 52.2662 173.809 51.7994C174.936 51.3326 176.144 51.0924 177.364 51.0924H177.791V40.658H164.115Z" fill="#F0F0F0"/>
<path d="M238.254 172.707H193.626V182.062H238.254V172.707Z" fill="#77736B"/>
<path d="M247.971 126.652H182.469V135.287H247.971V126.652Z" fill="#F0F0F0"/>
<path d="M280.003 221.28H0V222H280.003V221.28Z" fill="#3F3D56"/>
<path d="M259.195 222H177.364C174.806 221.997 172.353 220.98 170.543 219.171C168.734 217.362 167.717 214.91 167.714 212.352V60.3806C167.717 57.8227 168.734 55.3703 170.543 53.5616C172.353 51.7529 174.806 50.7355 177.364 50.7326H259.195C261.754 50.7355 264.207 51.7529 266.016 53.5616C267.825 55.3703 268.843 57.8227 268.846 60.3806V212.352C268.843 214.91 267.825 217.362 266.016 219.171C264.207 220.98 261.754 221.997 259.195 222ZM177.364 51.4522C174.996 51.4549 172.726 52.3964 171.052 54.0702C169.378 55.744 168.436 58.0134 168.433 60.3806V212.352C168.436 214.719 169.378 216.989 171.052 218.662C172.726 220.336 174.996 221.278 177.364 221.28H259.195C261.563 221.278 263.833 220.336 265.507 218.662C267.181 216.989 268.123 214.719 268.126 212.352V60.3806C268.123 58.0134 267.181 55.744 265.507 54.0702C263.833 52.3964 261.563 51.4549 259.195 51.4522H177.364Z" fill="#3F3D56"/>
<path d="M208.562 57.9287C208.135 57.9287 207.718 57.8021 207.363 57.5649C207.007 57.3277 206.731 56.9905 206.567 56.596C206.404 56.2015 206.361 55.7675 206.444 55.3487C206.528 54.9299 206.733 54.5452 207.035 54.2433C207.337 53.9414 207.722 53.7358 208.141 53.6525C208.56 53.5692 208.994 53.612 209.389 53.7754C209.783 53.9388 210.12 54.2154 210.358 54.5705C210.595 54.9255 210.722 55.3429 210.722 55.7699C210.721 56.3422 210.493 56.891 210.088 57.2957C209.684 57.7004 209.135 57.9281 208.562 57.9287ZM208.562 54.3306C208.278 54.3306 207.999 54.415 207.762 54.5732C207.526 54.7313 207.341 54.9561 207.232 55.2191C207.123 55.4821 207.095 55.7715 207.15 56.0506C207.206 56.3298 207.343 56.5863 207.544 56.7875C207.746 56.9888 208.002 57.1259 208.281 57.1814C208.561 57.237 208.85 57.2085 209.113 57.0995C209.376 56.9906 209.601 56.8061 209.759 56.5695C209.917 56.3328 210.002 56.0545 210.002 55.7699C210.001 55.3883 209.85 55.0224 209.58 54.7526C209.31 54.4828 208.944 54.331 208.562 54.3306Z" fill="#3F3D56"/>
<path d="M229.796 55.41H213.961V56.1297H229.796V55.41Z" fill="#3F3D56"/>
<path d="M262.367 61.1669V89.9514C254.731 89.951 247.408 86.9183 242.009 81.5202C236.609 76.1222 233.576 68.8009 233.575 61.1669H262.367Z" fill="#77736B"/>
<path d="M262.727 212.285H173.832V60.8071H262.727V212.285ZM174.552 211.566H262.008V61.5267H174.552V211.566Z" fill="#3F3D56"/>
<path opacity="0.1" d="M241.493 88.1524C246.86 88.1524 251.21 83.8029 251.21 78.4376C251.21 73.0723 246.86 68.7229 241.493 68.7229C236.126 68.7229 231.776 73.0723 231.776 78.4376C231.776 83.8029 236.126 88.1524 241.493 88.1524Z" fill="black"/>
<path d="M240.053 89.2318C245.42 89.2318 249.771 84.8823 249.771 79.517C249.771 74.1517 245.42 69.8023 240.053 69.8023C234.687 69.8023 230.336 74.1517 230.336 79.517C230.336 84.8823 234.687 89.2318 240.053 89.2318Z" fill="#77736B"/>
<path d="M191.467 66.9238H177.791V71.9611H191.467V66.9238Z" fill="#3F3D56"/>
<path d="M199.025 114.778H185.349V119.815H199.025V114.778Z" fill="#3F3D56"/>
<path d="M251.57 133.488H185.349V124.133H251.57V133.488ZM186.068 132.768H250.85V124.853H186.068V132.768Z" fill="#3F3D56"/>
<path d="M247.971 153.997H182.469V162.632H247.971V153.997Z" fill="#F0F0F0"/>
<path d="M199.025 142.123H185.349V147.16H199.025V142.123Z" fill="#3F3D56"/>
<path d="M251.57 160.833H185.349V151.478H251.57V160.833ZM186.068 160.113H250.85V152.198H186.068V160.113Z" fill="#3F3D56"/>
<path d="M241.133 179.903H195.786V169.828H241.133V179.903ZM196.506 179.183H240.414V170.548H196.506V179.183Z" fill="#3F3D56"/>
<path d="M249.771 129.89C249.771 130.631 249.542 131.353 249.116 131.959C248.69 132.565 248.087 133.025 247.39 133.275C246.693 133.526 245.935 133.556 245.22 133.36C244.506 133.164 243.869 132.753 243.397 132.182L243.394 132.178C243.049 131.761 242.804 131.272 242.675 130.746C242.546 130.221 242.538 129.674 242.649 129.145C242.761 128.616 242.991 128.119 243.322 127.691C243.652 127.263 244.075 126.915 244.559 126.673C245.042 126.431 245.574 126.3 246.115 126.292C246.656 126.284 247.192 126.398 247.682 126.625C248.173 126.852 248.606 127.187 248.95 127.604C249.293 128.022 249.538 128.512 249.667 129.037C249.667 129.038 249.667 129.038 249.667 129.038C249.667 129.039 249.667 129.039 249.668 129.04C249.668 129.04 249.668 129.04 249.669 129.04C249.669 129.041 249.67 129.041 249.67 129.041C249.737 129.319 249.77 129.604 249.771 129.89Z" fill="#77736B"/>
<path opacity="0.1" d="M249.771 129.89C249.771 130.631 249.542 131.353 249.116 131.959C248.69 132.565 248.087 133.025 247.39 133.275C246.693 133.526 245.935 133.556 245.22 133.36C244.506 133.164 243.869 132.753 243.397 132.182L243.394 132.178C243.327 131.9 243.293 131.615 243.293 131.329C243.293 130.588 243.522 129.866 243.948 129.26C244.374 128.654 244.977 128.194 245.674 127.943C246.371 127.693 247.129 127.663 247.843 127.859C248.558 128.055 249.195 128.466 249.667 129.037C249.667 129.038 249.667 129.038 249.667 129.038C249.667 129.039 249.667 129.039 249.668 129.04C249.668 129.04 249.668 129.04 249.669 129.04C249.669 129.041 249.67 129.041 249.67 129.041C249.737 129.319 249.77 129.604 249.771 129.89Z" fill="black"/>
<path d="M247.611 135.647C249.599 135.647 251.21 134.036 251.21 132.049C251.21 130.061 249.599 128.451 247.611 128.451C245.624 128.451 244.012 130.061 244.012 132.049C244.012 134.036 245.624 135.647 247.611 135.647Z" fill="#77736B"/>
<path d="M249.771 157.235C249.771 157.976 249.542 158.698 249.116 159.304C248.69 159.91 248.087 160.37 247.39 160.621C246.693 160.871 245.935 160.901 245.22 160.705C244.506 160.509 243.869 160.098 243.397 159.527L243.394 159.523C243.049 159.106 242.804 158.617 242.675 158.092C242.546 157.566 242.538 157.019 242.649 156.49C242.761 155.961 242.991 155.464 243.322 155.036C243.652 154.608 244.075 154.26 244.559 154.018C245.042 153.776 245.574 153.646 246.115 153.637C246.656 153.629 247.192 153.743 247.682 153.97C248.173 154.197 248.606 154.532 248.95 154.95C249.293 155.367 249.538 155.857 249.667 156.382C249.667 156.383 249.667 156.383 249.667 156.384C249.667 156.384 249.667 156.385 249.668 156.385C249.668 156.385 249.668 156.385 249.669 156.386C249.669 156.386 249.67 156.386 249.67 156.386C249.737 156.664 249.77 156.949 249.771 157.235Z" fill="#77736B"/>
<path opacity="0.1" d="M249.771 157.235C249.771 157.976 249.542 158.698 249.116 159.304C248.69 159.91 248.087 160.37 247.39 160.621C246.693 160.871 245.935 160.901 245.22 160.705C244.506 160.509 243.869 160.098 243.397 159.527L243.394 159.523C243.327 159.245 243.293 158.96 243.293 158.674C243.293 157.933 243.522 157.211 243.948 156.605C244.374 155.999 244.977 155.539 245.674 155.289C246.371 155.038 247.129 155.008 247.843 155.204C248.558 155.4 249.195 155.811 249.667 156.382C249.667 156.383 249.667 156.383 249.667 156.384C249.667 156.384 249.667 156.384 249.668 156.385C249.668 156.385 249.668 156.385 249.669 156.386C249.669 156.386 249.67 156.386 249.67 156.386C249.737 156.664 249.77 156.949 249.771 157.235Z" fill="black"/>
<path d="M247.611 162.992C249.599 162.992 251.21 161.381 251.21 159.394C251.21 157.407 249.599 155.796 247.611 155.796C245.624 155.796 244.012 157.407 244.012 159.394C244.012 161.381 245.624 162.992 247.611 162.992Z" fill="#77736B"/>
<path d="M187.148 17.2707H168.433V35.9805H187.148V17.2707Z" fill="#F0F0F0"/>
<path d="M241.493 30.9433C240.639 30.9433 239.804 30.69 239.094 30.2156C238.383 29.7412 237.83 29.0669 237.503 28.2779C237.176 27.489 237.091 26.6208 237.257 25.7833C237.424 24.9457 237.835 24.1764 238.439 23.5726C239.043 22.9687 239.813 22.5575 240.651 22.3909C241.488 22.2243 242.357 22.3098 243.146 22.6366C243.935 22.9634 244.61 23.5168 245.084 24.2268C245.559 24.9369 245.812 25.7717 245.812 26.6256C245.811 27.7703 245.355 28.8678 244.546 29.6772C243.736 30.4867 242.638 30.942 241.493 30.9433ZM241.493 23.0276C240.781 23.0276 240.085 23.2386 239.494 23.6339C238.902 24.0293 238.44 24.5912 238.168 25.2487C237.896 25.9062 237.824 26.6296 237.963 27.3276C238.102 28.0255 238.445 28.6666 238.948 29.1698C239.452 29.673 240.093 30.0157 240.791 30.1545C241.489 30.2934 242.213 30.2221 242.87 29.9498C243.528 29.6775 244.09 29.2163 244.486 28.6246C244.881 28.0329 245.092 27.3372 245.092 26.6256C245.091 25.6717 244.712 24.7571 244.037 24.0826C243.362 23.4081 242.447 23.0286 241.493 23.0276Z" fill="#3F3D56"/>
<path d="M146.48 91.0308H137.122V81.6758H146.48V91.0308ZM137.842 90.3112H145.76V82.3955H137.842V90.3112Z" fill="#3F3D56"/>
<path d="M289 160.833H279.643V151.478H289V160.833ZM280.362 160.113H288.28V152.198H280.362V160.113Z" fill="#3F3D56"/>
<path d="M104.372 98.1069L105.978 98.9715L111.442 101.916L120.263 106.667L125.404 97.1318C125.888 96.2359 126.191 95.2532 126.295 94.2402C126.398 93.2272 126.301 92.2036 126.009 91.2281C125.717 90.2526 125.235 89.3443 124.591 88.5552C123.947 87.7661 123.154 87.1117 122.257 86.6294C120.34 85.5944 118.143 85.1946 115.984 85.4874C113.825 85.7803 111.815 86.7508 110.243 88.2591L110.24 88.2618C109.467 89.0044 108.814 89.8632 108.306 90.8072L104.372 98.1069Z" fill="#2F2E41"/>
<path d="M128.448 195.352L127.371 207.203L123.329 207.742L120.635 194.274L128.448 195.352Z" fill="#FFB8B8"/>
<path d="M122.251 207.742C122.251 207.742 127.371 205.049 128.448 207.203C128.448 207.203 127.64 213.668 130.873 214.476C134.106 215.284 135.454 220.941 130.873 221.48C126.293 222.018 123.329 220.402 121.713 220.402C120.096 220.402 121.713 214.746 121.713 214.746L122.251 207.742Z" fill="#2F2E41"/>
<path d="M95.8472 195.352L96.9251 207.203L100.966 207.742L103.661 194.274L95.8472 195.352Z" fill="#FFB8B8"/>
<path d="M102.044 207.742C102.044 207.742 96.9248 205.049 95.8471 207.203C95.8471 207.203 96.6554 213.668 93.4222 214.476C90.1891 215.284 88.8419 220.941 93.4222 221.48C98.0026 222.018 100.966 220.402 102.583 220.402C104.199 220.402 102.583 214.746 102.583 214.746L102.044 207.742Z" fill="#2F2E41"/>
<path d="M117.941 100.267C121.809 100.267 124.946 97.1317 124.946 93.2638C124.946 89.3959 121.809 86.2604 117.941 86.2604C114.072 86.2604 110.935 89.3959 110.935 93.2638C110.935 97.1317 114.072 100.267 117.941 100.267Z" fill="#FFB8B8"/>
<path d="M95.5779 107.001L101.236 115.89L107.972 115.351L119.018 116.159C119.018 116.159 120.061 114.075 120.913 112.046C121.379 111.033 121.737 109.974 121.982 108.887C122.252 107.001 118.48 105.116 118.48 105.116C118.48 105.116 118.331 105.089 118.084 105.029C117.755 104.951 117.248 104.822 116.693 104.634C115.44 104.208 113.934 103.486 113.63 102.422C113.091 100.537 117.132 97.8429 117.132 97.8429L112.283 93.2638C112.283 93.2638 107.974 99.2463 102.742 100.609C102.439 100.689 102.131 100.752 101.821 100.798C101.804 100.8 101.791 100.803 101.775 100.806C96.1167 101.614 95.5779 107.001 95.5779 107.001Z" fill="#FFB8B8"/>
<path d="M98.5417 104.577L95.5779 107.001C95.5779 107.001 93.153 118.584 93.9613 121.816C94.7696 125.048 93.6919 128.011 93.6919 128.55C93.6919 129.089 91.267 149.291 91.267 149.291C91.267 149.291 86.4172 160.065 91.5364 158.988C96.6556 157.91 94.7696 147.136 94.7696 147.136L100.967 128.281V112.388L98.5417 104.577Z" fill="#FFB8B8"/>
<path d="M119.827 106.732L121.982 108.348L123.06 130.974L131.143 150.368C131.143 150.368 137.07 159.796 133.298 160.065C129.526 160.335 127.101 150.368 127.101 150.368L119.827 131.782L118.749 113.735L119.827 106.732Z" fill="#FFB8B8"/>
<path d="M106.355 108.348C106.355 108.348 111.744 112.119 120.365 110.772C120.365 110.772 122.79 115.621 121.443 118.314C120.096 121.008 123.06 127.473 123.599 128.281C124.138 129.089 130.334 145.789 132.49 163.836C134.645 181.883 140.573 194.274 135.454 195.89C130.334 197.506 119.827 199.392 118.749 197.776C117.671 196.16 116.055 156.025 116.055 156.025L113.091 171.378C113.091 171.378 117.132 197.506 114.169 198.045C111.205 198.584 92.614 196.968 93.1528 193.735C93.6917 190.503 99.0803 173.533 99.0803 173.533C99.0803 173.533 98.8109 139.594 104.2 133.129C104.2 133.129 106.355 129.627 103.391 125.048C100.428 120.469 100.697 113.196 100.697 113.196C100.697 113.196 102.852 113.196 106.355 108.348Z" fill="#2F2E41"/>
<path d="M101.821 100.798L106.355 110.772L107.433 110.234L102.742 100.609L101.821 100.798Z" fill="#2F2E41"/>
<path d="M116.693 104.634L120.096 112.119L120.912 112.046L120.635 110.772L118.083 105.029C117.755 104.951 117.248 104.822 116.693 104.634Z" fill="#2F2E41"/>
<path d="M105.978 98.9716C106.237 99.8048 106.736 100.543 107.413 101.094C108.09 101.645 108.914 101.984 109.783 102.068C110.652 102.153 111.526 101.979 112.297 101.569C113.067 101.159 113.7 100.531 114.115 99.7635C110.706 95.3082 113.63 92.5096 119.166 90.3924C119.583 89.6186 119.761 88.7382 119.676 87.8633C119.591 86.9884 119.248 86.1585 118.69 85.4793C117.163 85.2841 115.613 85.4325 114.151 85.9134C112.69 86.3944 111.355 87.1958 110.243 88.2591L110.24 88.2618L106.306 95.5561C106.026 96.0746 105.853 96.6439 105.796 97.2306C105.74 97.8172 105.802 98.4091 105.978 98.9716Z" fill="#2F2E41"/>
<path d="M113.765 95.688C114.285 95.688 114.708 94.9645 114.708 94.0719C114.708 93.1793 114.285 92.4557 113.765 92.4557C113.244 92.4557 112.822 93.1793 112.822 94.0719C112.822 94.9645 113.244 95.688 113.765 95.688Z" fill="#FFB8B8"/>
<path d="M116.575 91.4348L124.674 95.1035L126.158 91.8281C125.903 90.631 125.367 89.5114 124.596 88.5607L119.021 86.0368L116.575 91.4348Z" fill="#2F2E41"/>
<path d="M136.042 163.712C138.03 163.712 139.641 162.101 139.641 160.113C139.641 158.126 138.03 156.515 136.042 156.515C134.055 156.515 132.443 158.126 132.443 160.113C132.443 162.101 134.055 163.712 136.042 163.712Z" fill="#77736B"/>
<path d="M20.4987 185.101C21.7977 185.101 22.8508 184.048 22.8508 182.749C22.8508 181.451 21.7977 180.398 20.4987 180.398C19.1997 180.398 18.1466 181.451 18.1466 182.749C18.1466 184.048 19.1997 185.101 20.4987 185.101Z" fill="#FF6584"/>
<path d="M32.382 195.005H31.6622V221.778H32.382V195.005Z" fill="#3F3D56"/>
<path d="M32.0222 198.791C34.1137 198.791 35.8093 197.096 35.8093 195.005C35.8093 192.914 34.1137 191.218 32.0222 191.218C29.9306 191.218 28.235 192.914 28.235 195.005C28.235 197.096 29.9306 198.791 32.0222 198.791Z" fill="#3F3D56"/>
<path d="M32.0223 211.506C32.0223 211.506 31.4812 199.873 20.3903 201.225L32.0223 211.506Z" fill="#3F3D56"/>
</svg>
