<svg width="73" height="73" viewBox="0 0 73 73" fill="none" xmlns="http://www.w3.org/2000/svg">
<g clip-path="url(#clip0)">
<path d="M36.26 72.52C56.2858 72.52 72.52 56.2858 72.52 36.26C72.52 16.2342 56.2858 0 36.26 0C16.2342 0 0 16.2342 0 36.26C0 56.2858 16.2342 72.52 36.26 72.52Z" fill="white"/>
<path d="M31.076 20.1212L8.71002 21.1141L9.59802 25.703L16.898 25.3922L18.975 53.0331H24.353L22.281 25.1771L31.075 24.5121L31.076 20.1212Z" fill="black"/>
<path d="M41.445 20.1212L63.811 21.1141L62.923 25.703L55.623 25.3922L53.546 53.0331H48.1671L50.239 25.1771L41.446 24.5121L41.445 20.1212Z" fill="black"/>
<path d="M28.542 53.0312L26.762 27.6161L33.673 26.7951L40.057 42.6811L39.957 26.4892L44.991 27.0211L43.2381 53.0312H37.78L32.5401 35.2311L33.197 53.0312H28.542Z" fill="black"/>
</g>
<defs>
<clipPath id="clip0">
<rect width="72.52" height="72.52" fill="white"/>
</clipPath>
</defs>
</svg>
